<svg xmlns="http://www.w3.org/2000/svg" width="32" height="32" fill="none" viewBox="0 0 32 32">
  <g class="Bank=Bank Of America" clip-path="url(#a)">
    <path fill="#E31837" fill-rule="evenodd" d="M15.952 24.674c5.053-4.331 12.15-8.541 16.048-10.057a63.16 63.16 0 0 0-2.599-1.54c-5.028 1.66-10.899 5.341-16.144 9.504.89.673 1.828 1.371 2.695 2.093Z" class="Vector" clip-rule="evenodd"/>
    <path fill="#012169" fill-rule="evenodd" d="M13.642 12.909c-.746-.362-1.564-.698-2.19-.987-1.9.938-4.379 2.358-7.506 4.595.674.362 1.395.794 2.165 1.228 2.406-1.78 4.836-3.465 7.531-4.836Z" class="Vector" clip-rule="evenodd"/>
    <path fill="#E31837" fill-rule="evenodd" d="M18.141 10.84c-.914-.506-4.09-1.685-6.28-2.19-.649.24-1.564.601-2.189.866.794.217 3.753 1.01 6.28 2.286.65-.313 1.564-.698 2.19-.963Z" class="Vector" clip-rule="evenodd"/>
    <path fill="#012169" fill-rule="evenodd" d="M7.386 10.527C4.571 11.826 1.612 13.606 0 14.64c.577.264 1.155.48 1.949.866 3.56-2.406 6.352-3.874 7.458-4.355-.794-.29-1.54-.481-2.021-.625Z" class="Vector" clip-rule="evenodd"/>
    <path fill="#E31837" fill-rule="evenodd" d="M20.259 10.094c.65-.217 1.396-.41 2.045-.602-1.877-.794-4.235-1.636-6.352-2.166-.337.096-1.347.362-2.045.578.722.217 3.103.77 6.352 2.19ZM8.397 19.14c.77.457 1.588 1.083 2.382 1.612 5.27-4.09 10.466-7.242 16.168-9.022-.794-.41-1.492-.77-2.382-1.203-3.416.866-9.263 3.2-16.168 8.613Z" class="Vector" clip-rule="evenodd"/>
  </g>
  <defs>
    <clipPath id="a" class="a">
      <path fill="#fff" d="M0 0h32v32H0z"/>
    </clipPath>
  </defs>
</svg>
