<svg xmlns="http://www.w3.org/2000/svg" width="64" height="28" fill="none" viewBox="0 0 64 28">
  <g class="Bank=BCA">
    <path fill="#0060AF" d="m46.916 2.872-3.824 7.165c-1.443-1.21-3.206-2.1-5.455-2.1-5.322 0-7.483 4.095-7.483 6.98 0 2.14 1.358 5.3 6.093 5.3 1.988 0 4.813-1.428 5.627-2.077l-3.783 8.313c-1.802.371-2.395.601-3.92.65-8.476.261-11.9-5.113-11.898-10.605.005-7.26 6.258-16.09 16.624-16.09.635 0 1.412.227 2.077.478l.67-.886" class="path46"/>
    <path fill="#0060AF" d="m62.696.225 1.083 26.042h-8.06l-.004-4.466h-5.496l-1.808 4.466h-8.74l9.137-18.596-2.06-.014L50.663.225h12.033Zm-7.034 7.967-3.107 7.575h3.201" class="path48"/>
    <path fill="#0060AF" d="M17.185.226c3.99.023 6.246 2.259 6.246 5.49 0 2.978-2.378 5.614-4.99 6.977 2.689 1.02 2.921 3.524 2.921 5.295 0 4.28-4.16 8.28-9.568 8.28H0L4.6 7.93l-1.89-.01L6.575.225s7.365-.023 10.61 0Zm-3.916 10.558c.826 0 2.283-.216 2.648-1.865.4-1.79-.969-1.838-1.625-1.838l-2.345-.011-.817 3.714h2.14Zm-3.315 4.602-1.08 4.28h2.761c1.087 0 2.567-.556 2.93-1.95.358-1.396-.677-2.33-1.76-2.33" class="path50"/>
  </g>
</svg>
