<svg xmlns="http://www.w3.org/2000/svg" width="32" height="21" fill="none" viewBox="0 0 32 21">
  <g class="Bank=Citi" clip-path="url(#a)">
    <g class="Group">
      <g class="Group">
        <g class="Group">
          <g class="Group">
            <path fill="#004685" d="m9.84 16.459-.057.056c-.912.919-1.967 1.404-3.053 1.404-2.27 0-3.916-1.685-3.916-4.009 0-2.32 1.647-4.008 3.916-4.008 1.086 0 2.141.488 3.053 1.411l.058.055L11.3 9.62l-.04-.047c-1.213-1.42-2.67-2.11-4.46-2.11-1.795 0-3.439.6-4.622 1.677C.892 10.311.214 11.96.214 13.911c0 1.95.678 3.603 1.965 4.772 1.183 1.084 2.827 1.678 4.622 1.678 1.79 0 3.247-.69 4.46-2.111l.04-.043-1.46-1.748Z" class="Vector"/>
          </g>
        </g>
        <path fill="#004685" d="M12.774 20.123h2.577V7.666h-2.577v12.457Z" class="Vector"/>
        <g class="Group">
          <g class="Group">
            <path fill="#004685" d="M25.45 17.415c-.688.415-1.328.624-1.903.624-.833 0-1.21-.436-1.21-1.406v-6.61h2.627V7.678h-2.627V3.802l-2.526 1.34v2.536h-2.18v2.345h2.18v7.031c0 1.915 1.146 3.226 2.858 3.26 1.162.022 1.863-.32 2.287-.572l.027-.017.62-2.402-.153.092Z" class="Vector"/>
          </g>
        </g>
        <path fill="#004685" d="M27.584 20.123h2.581V7.666h-2.581v12.457Z" class="Vector"/>
        <g class="Group">
          <path fill="#EE1C25" d="M31.669 5.482C29.313 2.181 25.402.211 21.423.211c-3.978 0-7.89 1.97-10.24 5.271l-.122.17h2.966l.032-.035c2.019-2.063 4.654-3.153 7.364-3.153s5.344 1.09 7.367 3.153l.033.035h2.964l-.118-.17Z" class="Vector"/>
        </g>
      </g>
    </g>
  </g>
  <defs>
    <clipPath id="a" class="a">
      <path fill="#fff" d="M0 0h32v20.573H0z"/>
    </clipPath>
  </defs>
</svg>
