<svg xmlns="http://www.w3.org/2000/svg" width="113" height="32" fill="none" viewBox="0 0 113 32">
  <g class="Bank=Mandiri" clip-path="url(#a)">
    <path fill="#0D2B5B" d="M.133 21.99c0-1.59-.029-2.92-.117-4.11h3.078l.146 2.042h.085c.697-1.078 1.974-2.356 4.355-2.356 1.859 0 3.31 1.023 3.92 2.553h.059c.494-.765 1.073-1.333 1.74-1.729.784-.54 1.687-.824 2.846-.824 2.353 0 4.731 1.56 4.731 5.985v8.136h-3.483v-7.628c0-2.295-.814-3.659-2.526-3.659-1.22 0-2.12.854-2.496 1.846a4.88 4.88 0 0 0-.175 1.16v8.282H8.813V23.69c0-1.924-.784-3.288-2.44-3.288-1.332 0-2.232 1.023-2.555 1.985-.144.341-.203.74-.203 1.134v8.168H.133V21.99Zm34.417 6.382c0 1.246.058 2.464.202 3.316h-3.223l-.231-1.53h-.088c-.871 1.078-2.353 1.84-4.178 1.84-2.846 0-4.443-2.01-4.443-4.11 0-3.49 3.162-5.246 8.39-5.218v-.226c0-.909-.378-2.411-2.875-2.411-1.395 0-2.845.427-3.803 1.02l-.697-2.269c1.046-.625 2.875-1.22 5.108-1.22 4.531 0 5.84 2.811 5.84 5.813l-.002 4.995Zm-3.485-3.43c-2.527-.059-4.935.48-4.935 2.579 0 1.36.902 1.985 2.033 1.985 1.42 0 2.468-.91 2.787-1.9.078-.249.117-.507.116-.766v-1.899h-.001Zm5.951-2.952c0-1.59-.03-2.92-.113-4.11h3.132l.173 2.072h.088c.608-1.08 2.148-2.386 4.5-2.386 2.468 0 5.021 1.56 5.021 5.929v8.192h-3.57V23.89c0-1.985-.756-3.492-2.7-3.492-1.421 0-2.411.994-2.787 2.044-.117.31-.145.737-.145 1.131v8.112h-3.6l.001-9.696ZM65.3 12.332v15.471c0 1.418.06 2.952.117 3.885h-3.192l-.146-2.181h-.06C61.18 31.037 59.465 32 57.406 32c-3.369 0-6.038-2.807-6.038-7.057-.031-4.623 2.929-7.376 6.329-7.376 1.944 0 3.337.794 3.976 1.82h.06v-7.054h3.57v-.001H65.3Zm-3.569 11.303a4.72 4.72 0 0 0-.088-.908c-.319-1.358-1.449-2.466-3.076-2.466-2.293 0-3.573 1.986-3.573 4.566 0 2.52 1.279 4.365 3.544 4.365 1.45 0 2.728-.966 3.076-2.468.088-.31.119-.653.119-1.02v-2.07h-.002Zm6.095 8.053V17.88h3.603v13.81h-3.603Zm6.126-9.356c0-1.871-.028-3.206-.114-4.452h3.106l.114 2.635h.117c.697-1.955 2.35-2.635 3.864-2.635.348 0 .55-.058.839 0v3.064a5.044 5.044 0 0 0-1.043-.113c-1.717 0-2.877 1.078-3.195 2.635-.07.356-.11.717-.115 1.08v7.143h-3.573v-9.357Zm9.583 9.356V17.88h3.597v13.81h-3.597Z" class="Vector"/>
    <path fill="#FDD213" d="M109.541 3.275c-1.783-1.986-3.678-1.087-5.184-.356-.633.305-5.205 2.837-5.205 2.837-2.505 1.008-4.456-.093-5.22-1.02a2.199 2.199 0 0 1-.199-.278l-.178-.302c-.302-.51-.637-.999-1.003-1.466a8.353 8.353 0 0 0-.721-.804c-1.714-1.69-4.454-2.873-9.032-.725a3073.27 3073.27 0 0 1-9.23 5.168c-2.653 1.067-4.683-.233-5.342-1.186a.692.692 0 0 1-.077-.115l-.087-.144-.447-.714a12.037 12.037 0 0 0-.649-.91 9.229 9.229 0 0 0-.723-.803c-1.702-1.68-4.427-2.861-8.965-.753-2.745 1.53-9.128 5.094-9.128 5.094l-.002.003-4.672 2.607 2.418 2.899c1.017.946 2.929 2.5 5.886 1.19 0 0 8.163-4.617 8.196-4.63 6.978-3.741 10.422-.167 11.945 2.215.053.074.095.155.143.227l.003.004c.019.03.03.056.047.083l.172.276c.742 1.098 1.912 1.807 3.307 1.775.769-.015 1.291-.26 2.051-.673l7.898-4.475.017-.007c7.067-3.786 10.569.021 12.064 2.404.116.206.248.402.384.585.74.981 1.762 1.624 3.06 1.592.857-.016 1.817-.518 1.961-.61l9.468-5.338c.003.002-.964-1.426-2.956-3.65Z" class="Vector"/>
  </g>
  <defs>
    <clipPath id="a" class="a">
      <path fill="#fff" d="M0 0h112.514v32H0z"/>
    </clipPath>
  </defs>
</svg>
