<svg xmlns="http://www.w3.org/2000/svg" width="28" height="32" fill="none" viewBox="0 0 28 32">
  <g class="Bank=Paypal" clip-path="url(#a)">
    <path fill="#27346A" d="M23.011 2.491C21.535.808 18.866.087 15.451.087H5.542A1.42 1.42 0 0 0 4.14 1.283L.014 27.453a.85.85 0 0 0 .841.982h6.118l1.536-9.745-.048.305a1.414 1.414 0 0 1 1.397-1.197h2.907c5.71 0 10.183-2.32 11.489-9.03.039-.198.072-.391.101-.58-.165-.087-.165-.087 0 0 .39-2.48-.002-4.169-1.344-5.697Z" class="Vector"/>
    <path fill="#27346A" d="M10.85 7.295c.167-.08.35-.121.535-.121h7.77c.92 0 1.777.06 2.561.186.22.035.438.077.655.125.307.068.61.15.91.249.386.128.745.278 1.075.454.388-2.481-.003-4.169-1.345-5.697C21.534.808 18.866.087 15.451.087h-9.91c-.698 0-1.291.508-1.4 1.196L.013 27.451a.85.85 0 0 0 .84.984h6.119L10.16 8.22a1.241 1.241 0 0 1 .69-.926Z" class="Vector"/>
    <path fill="#2790C3" d="M24.254 8.768c-1.306 6.71-5.778 9.03-11.49 9.03H9.858c-.698 0-1.287.508-1.396 1.197l-1.91 12.117a.745.745 0 0 0 .734.861h5.157a1.241 1.241 0 0 0 1.225-1.047l.05-.263.972-6.16.063-.34a1.241 1.241 0 0 1 1.225-1.047h.772c4.996 0 8.907-2.03 10.05-7.9.477-2.452.23-4.5-1.032-5.939a4.926 4.926 0 0 0-1.412-1.09c-.03.19-.062.383-.101.581Z" class="Vector"/>
    <path fill="#1F264F" d="M22.988 7.643a9.53 9.53 0 0 0-.616-.158 11.998 11.998 0 0 0-.655-.124 16.122 16.122 0 0 0-2.563-.187h-7.768a1.239 1.239 0 0 0-1.225 1.048L8.51 18.69l-.048.305A1.413 1.413 0 0 1 9.858 17.8h2.908c5.71 0 10.182-2.32 11.489-9.03.039-.199.071-.391.101-.58a7.053 7.053 0 0 0-1.368-.546" class="Vector"/>
  </g>
  <defs>
    <clipPath id="a" class="a">
      <path fill="#fff" d="M0 0h27.126v32H0z"/>
    </clipPath>
  </defs>
</svg>
