<svg width="44" height="44" viewBox="0 0 44 44" fill="none" xmlns="http://www.w3.org/2000/svg">
    <circle cx="22" cy="22" r="22" fill="#F3F6FB"/>
    <path d="M19 21.4999L21 23.4999L25.5 18.9999M30 21.9999C30 26.9083 24.646 30.4783 22.698 31.6147C22.4766 31.7439 22.3659 31.8085 22.2097 31.842C22.0884 31.868 21.9116 31.868 21.7903 31.842C21.6341 31.8085 21.5234 31.7439 21.302 31.6147C19.354 30.4783 14 26.9083 14 21.9999V17.2175C14 16.418 14 16.0182 14.1308 15.6746C14.2463 15.371 14.434 15.1001 14.6777 14.8854C14.9535 14.6423 15.3278 14.5019 16.0764 14.2212L21.4382 12.2105C21.6461 12.1326 21.75 12.0936 21.857 12.0782C21.9518 12.0644 22.0482 12.0644 22.143 12.0782C22.25 12.0936 22.3539 12.1326 22.5618 12.2105L27.9236 14.2212C28.6722 14.5019 29.0465 14.6423 29.3223 14.8854C29.566 15.1001 29.7537 15.371 29.8692 15.6746C30 16.0182 30 16.418 30 17.2175V21.9999Z" stroke="#2D3C52" stroke-width="1.5" stroke-linecap="round" stroke-linejoin="round"/>
</svg>
