<svg width="44" height="44" viewBox="0 0 44 44" fill="none" xmlns="http://www.w3.org/2000/svg">
    <circle cx="22" cy="22" r="22" fill="#F3F6FB"/>
    <path d="M25.0325 28.015C25.4613 29.6154 24.5115 31.2604 22.9111 31.6893C21.3107 32.1181 19.6657 31.1683 19.2369 29.5679M21.533 15.7411C21.8372 15.1938 21.9374 14.5323 21.7626 13.8797C21.4052 12.546 20.0344 11.7546 18.7007 12.1119C17.367 12.4693 16.5756 13.8401 16.9329 15.1738C17.1078 15.8264 17.5253 16.3492 18.0624 16.671M26.8774 19.4455C26.5204 18.1134 25.5675 16.9994 24.2282 16.3487C22.889 15.698 21.273 15.5638 19.736 15.9756C18.1989 16.3875 16.8666 17.3117 16.0321 18.5449C15.1976 19.778 14.9293 21.2192 15.2863 22.5514C15.8768 24.7554 15.7622 26.5138 15.3892 27.8499C14.9641 29.3728 14.7516 30.1342 14.809 30.2871C14.8747 30.462 14.9222 30.5101 15.0965 30.5776C15.2488 30.6366 15.8885 30.4651 17.1681 30.1223L29.0331 26.9431C30.3127 26.6002 30.9525 26.4288 31.0548 26.3015C31.172 26.1559 31.1891 26.0906 31.1586 25.9063C31.1318 25.7451 30.5671 25.192 29.4375 24.0857C28.4465 23.115 27.468 21.6496 26.8774 19.4455Z" stroke="#2D3C52" stroke-width="1.5" stroke-linecap="round" stroke-linejoin="round"/>
</svg>
