<svg xmlns="http://www.w3.org/2000/svg" width="299" height="299" fill="none" viewBox="0 0 299 299">
  <path fill="#F4F7FA" d="M41.341 93.508c-.995 2.87-5.905 8.161-8.742 8.728 0 1.286-2.94 9.404-.831 9.404 6.868 0 12.837.262 18.562 4.548 3.335 2.497 5.869 5.357 8.62 8.482 3.763 4.276 8.985 9.794 10.712 15.396.565 1.836-1.82 3.887-2.124 5.563-.387 2.121-.056 3.601-1.416 5.562-2.241 3.231-5.926 5.52-8.466 8.574-2.907 3.496-4.956 7.628-8.434 10.634-3.913 3.38-7.964 6.247-12.714 8.42-3.603 1.649-8.234 3.895-10.497 7.284-2.098 3.142-1.17 8.331-1.17 11.862 0 4.073.404 8.082.555 12.139.147 3.964 4.294 8.424 6.649 11.371 4.43 5.543 9.635 10.533 16.5 12.846 5.653 1.904 10.964 2.502 16.007 5.9 4.601 3.101 8.65 6.512 12.928 10.019l.099.08c1.796 1.473 4.44 3.64 6.828 4.007 2.329.358 3.946-1.268 6.095-1.598 2.664-.409 5.53.066 8.157.399 6.388.81 12.893-.359 19.27-.43 5.678-.063 8.548-.26 12.991 3.288 2.021 1.614 3.174 3.245 3.909 5.594 1.547 4.94 5.159 10.744 10.528 12.292 3.45.995 7.431.21 10.928-.03 4.495-.309 8.991-.608 13.483-.953 10.242-.787 20.973 1.004 31.03-1.506 4.146-1.035 9.093-3.145 10.651-7.498 2.212-6.184 13.012-9.523 9.419-17.272-5.827-12.566-10.75-27.8-6.772-41.518 2.05-7.072 7.129-14.727 13.606-18.439 9.597-5.501 21.092-5.765 31.737-7.284 5.933-.846 11.012-2.332 14.191-7.56 1.545-2.54.52-6.913 1.232-9.834 1.185-4.867 2.647-9.572 2.647-14.628 0-3.023.632-6.838-.277-9.742-3.072-9.813-7.443-19.402-13.021-28.058-3.292-5.109-6.508-10.633-12.868-10.633-5.405 0-7.723-6.703-9.973-10.757-3.18-5.727-5.661-12.133-9.297-17.578-3.486-5.22-4.108-11.607-5.849-17.61-1.631-5.626-5.572-12.11-8.68-17.117-2.267-3.652-6.08-8.085-10.651-8.728-8.829-1.241-17.421 2.422-25.797 4.456-1.339.326-2.312-.334-3.57-.706-2.911-.861-5.963-.749-8.897-1.66-4.87-1.512-11.519-2.77-16.592-1.352-3.141.878-5.96 1.642-9.204 2.182-6.963 1.158-15.853 3.945-18.932 11.155-2.052 4.808-2.062 9.07-6.587 12.6-7.509 5.857-9.476-.35-18.228 0 0-6.14-16.168-3.925-16.41-2.238-.135.942-.686 9.266-.794 10.229-.143 1.287-1.288 1.168-2.308 1.168-2.149 0-4.584.4-6.526-.677-2.451-1.359-1.313-4.334-1.786-6.515l-.008-.037c-.71-3.28-1.428-6.594-4.979-8.137-8.027-3.49-15.391 2.594-15.391 10.418 0 3.105 1.183 9.047-1.662 11.278-2.575 2.02-6.172 2.358-8.25 5.01-3.266 4.165.492 9.206.492 13.552 0 1.659.435 4.047-.123 5.655Z"/>
  <path fill="#57585C" d="M87.37 54.137c-1.113-22.673 46.719-12.364 63.191-13.93 13.75 1.052 56.431-1.932 60.279 5.912 1.864 3.803 2.028 8.471 1.897 10.636-3.213 53.464-13.791 103.601-22.824 156.394-.931 7.219-4.025 11.645-11.776 10.693-23.955-1.381-48.163-1.115-72.002-3.308-5.151-1.605-5.278-7.602-5.867-12.092-2.152-16.444-4.297-32.892-6.204-49.368-4.029-34.827-7.001-69.849-6.694-104.937Z"/>
  <path fill="#fff" d="M97.563 64.356c-.153-3.888-.607-6.74 1.802-9.81 2.752-3.507 7.909-2.877 12.385-2.97 13.159-.272 26.841.41 40.001.596 15.222.218 29.527-.293 44.419 1.36a9.043 9.043 0 0 1 4.785 1.993c1.063.881 1.821 2 1.73 4.419-.433 11.642-3.801 22.554-5.193 36.566-1.223 12.306-3.349 23.738-4.567 36.053-1.97 19.884-5.881 39.558-8.945 59.308-.176 1.127-.378 2.302-1.025 3.239-1.295 1.85-3.875 2.171-6.139 2.304a455.784 455.784 0 0 1-57.388-.216c-2.216-.148-4.501-.33-6.477-1.337-3.64-1.853-5.384-6.009-6.534-9.901-2.269-7.699-3.063-15.467-3.241-23.45-.149-6.76-.946-13.519-1.401-20.266a2607.082 2607.082 0 0 1-1.602-24.997 2749.41 2749.41 0 0 1-2.493-49.794c-.038-1.034-.077-2.066-.117-3.097Z"/>
  <path fill="#FF8D55" d="M30.763 247.686c.39 1.364.822 2.777 1.786 3.814 1.214 1.305 3.043 1.784 4.772 2.201a769.384 769.384 0 0 0 20.93 4.755c3.574.759 7.197 1.491 10.844 1.326 7.306-.349 13.895-4.273 20.138-8.087 2.779-1.696 5.646-3.478 7.434-6.201 1.303-1.993 1.936-4.343 2.544-6.649 3.427-12.996 6.857-25.988 10.291-38.979.22-.833.426-1.778-.024-2.512-.451-.735-1.323-.966-2.133-1.148-3.535-.804-7.129-1.328-10.717-1.851-10.5-1.533-21.027.069-31.52-1.464-2.478-.361-4.962-3.858-7.454-3.625-2.491.233-4.916 1.064-7.296 1.888l-14.723 5.091c-4.357 1.506-8.767 3.04-12.604 5.592-1.412.941-1.932 1.955-1.7 3.659.24 1.784.595 3.558.963 5.32.473 2.264 1.042 4.499 1.608 6.742 1.531 6.084 2.402 12.328 3.828 18.442a247.317 247.317 0 0 0 3.033 11.686Z"/>
  <path fill="#000" d="M60.813 212.668a.464.464 0 0 1-.105 0c-5.815-.887-9.479-1.782-13.355-2.728-3.115-.753-6.337-1.546-10.944-2.398a.719.719 0 0 1-.45-.316.774.774 0 0 1 .177-1.031.708.708 0 0 1 .53-.135c4.645.857 7.887 1.648 11.02 2.415 3.845.942 7.476 1.823 13.233 2.701a.725.725 0 0 1 .498.26.775.775 0 0 1-.074 1.066.713.713 0 0 1-.53.181v-.015Zm13.14-.222a.703.703 0 0 1-.45-.162.762.762 0 0 1-.258-.418.778.778 0 0 1 .05-.492.746.746 0 0 1 .334-.356c1.37-.708 2.378-1.223 2.998-1.528.282-.139.463-.226.578-.275.69-.309.987.096 1.09.283.34.668-.334 1.056-.556 1.185a.669.669 0 0 1-.33.094c-.453.222-1.35.672-3.124 1.59a.684.684 0 0 1-.331.079Zm-3.094 46.239h-.01a.711.711 0 0 1-.511-.228.758.758 0 0 1-.206-.538c.26-15.915.318-23.232.311-39.153 0-.199.077-.39.213-.531a.717.717 0 0 1 .514-.222c.193 0 .378.081.514.222a.765.765 0 0 1 .213.531c0 15.932-.051 23.255-.31 39.185a.769.769 0 0 1-.22.522.713.713 0 0 1-.508.212Z"/>
  <path fill="#3982F0" d="M42.758 207.068a398.219 398.219 0 0 0 23.757-12.214c1.35.747 2.69.923 4.036 1.671-6.974 3.771-13.949 8.112-20.921 11.884-.41.222-.843.463-1.074.863-.25.434-.218.967-.177 1.466 1.278 15.766 2.928 31.061 4.207 46.828-.118-.027-2.077-.435-4.242-.932-.056-.013-.176-1.327-.23-1.883a479.634 479.634 0 0 0-1.516-13.471c-.91-7.161-1.982-14.3-3.217-21.419a490.45 490.45 0 0 0-1.903-10.278 2.272 2.272 0 0 1 .205-1.472c.231-.453.61-.821 1.075-1.043Z"/>
  <path fill="#3982F0" d="M89.781 205.836c.027-.452.046-.938-.189-1.32-.274-.441-.811-.616-1.303-.759-8.361-2.41-16.93-4.919-25.578-5.796 1.247-2.609 4.272-3.065 7.116-3.106 2.844-.04 5.593.952 8.3 1.844a132.745 132.745 0 0 0 14.252 3.835c2.459.518 3.124.736 2.68 3.258l-6.452 48.836-4.45 2.698c.861-5.706 1.597-11.488 2.402-17.217a403.868 403.868 0 0 0 3.222-32.273Z"/>
  <path fill="#000" d="M27.71 222.133a.752.752 0 0 1-.745-.666 54.094 54.094 0 0 0-2.29-10.538.758.758 0 0 1 .474-.95.74.74 0 0 1 .941.479 55.626 55.626 0 0 1 2.354 10.847.763.763 0 0 1-.156.555.738.738 0 0 1-.498.278l-.08-.005Zm.805 7.429a.737.737 0 0 1-.504-.194.76.76 0 0 1-.241-.489l-.274-2.972a.752.752 0 0 1 .17-.551.751.751 0 0 1 .506-.271.77.77 0 0 1 .547.171.776.776 0 0 1 .267.512l.274 2.981a.758.758 0 0 1-.393.737.706.706 0 0 1-.28.083l-.072-.007Zm5.484-67.126a2.108 2.108 0 0 1-.91-.188 1.627 1.627 0 0 1-.882-.995 1.996 1.996 0 0 1-.093-.811c.132-1.709.782-3.248 1.41-4.737l7.94-18.797c.18-.432.419-.836.71-1.201a1.504 1.504 0 0 1 1.8-.433 1.554 1.554 0 0 1 .898 1.654 102.272 102.272 0 0 1-1.832 9.221c.824-1.065 1.584-1.987 2.016-2.446a99.045 99.045 0 0 1 28.338-21.264c1.48-.738 2.691-1.195 3.811-1.436 1.08-.231 1.677.252 1.88.783.29.766-.177 1.682-1.13 2.23-12.3 7.056-22.332 14.072-31.393 25.374-.09.113-.186.247-.293.392a306.31 306.31 0 0 1 10.27-2.978c.68-.188 1.613-.437 2.522.051a1.764 1.764 0 0 1 .956 1.416c.086 1.065-.785 1.616-1.204 1.881a146.514 146.514 0 0 1-23.263 11.942 4.274 4.274 0 0 1-1.55.342Zm9.34-25.788-.012.015a3.583 3.583 0 0 0-.492.839l-7.94 18.8c-.58 1.376-1.18 2.8-1.304 4.264a.532.532 0 0 0 .019.207.162.162 0 0 0 .032.07.174.174 0 0 0 .061.043c.187.086.67.068 1.284-.188a145.072 145.072 0 0 0 23.029-11.819c.372-.233.518-.376.508-.483a.302.302 0 0 0-.17-.209c-.36-.188-.823-.091-1.436.075a299.252 299.252 0 0 0-12.285 3.608.74.74 0 0 1-.826-.276.753.753 0 0 1-.003-.879c.222-.314.436-.628.637-.926.345-.506.67-.984.954-1.341 9.208-11.478 19.382-18.597 31.814-25.736.114-.064.218-.143.31-.235h-.012c-.995.212-2.095.63-3.46 1.317a97.68 97.68 0 0 0-27.902 20.938 55.187 55.187 0 0 0-4.287 5.618.742.742 0 0 1-1.309-.115.76.76 0 0 1-.023-.53l.054-.166c.035-.107.067-.205.093-.294a99.606 99.606 0 0 0 2.727-12.539v-.035a.088.088 0 0 0-.05-.023h-.01Zm96.596 72.299c-.615 2.701.572 5.657 2.71 7.394 2.137 1.737 5.087 2.295 7.778 1.753 3.583-.722 6.832-3.59 7.387-7.237.619-4.053-2.063-7.679-5.894-8.656-1.402-.361-2.921-.705-4.353-.329-1.433.376-2.758 1.376-3.981 2.213-1.724 1.168-3.17 2.76-3.647 4.862Z"/>
  <path fill="#000" d="M149.047 219.491c-2.509 0-4.929-.734-6.771-2.1-2.64-1.958-3.935-5.199-3.22-8.064.508-2.049 1.951-3.813 4.292-5.276l.485-.303c1.201-.762 2.561-1.625 4.082-1.99 1.711-.41 3.47-.065 5.123.324 4.7 1.105 7.708 5.153 6.997 9.415-.629 3.759-4.189 6.96-8.656 7.781-.769.142-1.549.213-2.332.213Zm.524-16.429a5.524 5.524 0 0 0-1.25.138c-1.245.3-2.426 1.051-3.574 1.775l-.493.311c-1.992 1.243-3.21 2.714-3.625 4.374-.578 2.321.491 4.963 2.66 6.571 2.04 1.512 4.945 2.105 7.77 1.585 3.754-.689 6.855-3.443 7.375-6.546.584-3.501-1.907-6.829-5.796-7.744-1.045-.248-2.082-.464-3.067-.464Z"/>
  <path fill="#fff" d="M142.982 212.817a.727.727 0 0 1-.447-.149.791.791 0 0 1-.276-.877.783.783 0 0 1 .276-.392 91.908 91.908 0 0 1 9.724-6.35.763.763 0 0 1 .594-.092.763.763 0 0 1 .473.382c.05.092.08.196.089.301a.76.76 0 0 1-.032.314.75.75 0 0 1-.15.274.732.732 0 0 1-.243.192 90.39 90.39 0 0 0-9.562 6.248.726.726 0 0 1-.446.149Zm4.5 3.314a.742.742 0 0 1-.498-.196.787.787 0 0 1-.261-.537.803.803 0 0 1 .185-.57 16.333 16.333 0 0 1 4.726-3.827.75.75 0 0 1 1.023.337.82.82 0 0 1 .084.294.788.788 0 0 1-.41.762 14.716 14.716 0 0 0-4.268 3.467.757.757 0 0 1-.581.27Z"/>
  <path fill="#000" d="M180.638 221.73c-.265 0-.533-.011-.806-.035a.758.758 0 0 1-.514-.264.746.746 0 0 1 .093-1.057.76.76 0 0 1 .553-.174c3.239.284 5.509-1.494 5.93-4.614a.752.752 0 0 1 .848-.632.76.76 0 0 1 .496.282.742.742 0 0 1 .153.546c-.495 3.684-3.109 5.948-6.753 5.948Zm-50.695-2.647h-.023c-.715-.021-2.095-.103-3.692-.187-3.033-.187-6.81-.403-9.073-.403a.761.761 0 0 1-.534-.219.74.74 0 0 1 0-1.055.759.759 0 0 1 .534-.221c2.308 0 6.11.224 9.164.405 1.583.094 2.952.176 3.646.187a.771.771 0 0 1 .531.228.753.753 0 0 1 .213.531.757.757 0 0 1-.229.527.764.764 0 0 1-.537.209v-.002ZM98.675 74.926a.76.76 0 0 1-.514-.198.745.745 0 0 1-.241-.492c-.468-6.131-.578-9.821-.434-14.626a7.874 7.874 0 0 1 1.098-3.832 8.556 8.556 0 0 1 5.187-3.759c2.287-.523 6.245-.575 8.325-.447a.756.756 0 0 1 .708.794.746.746 0 0 1-.254.515.764.764 0 0 1-.548.186c-1.931-.12-5.776-.07-7.891.413a6.977 6.977 0 0 0-4.225 3.066 6.409 6.409 0 0 0-.885 3.11c-.141 4.748-.034 8.408.43 14.47a.734.734 0 0 1-.18.543.753.753 0 0 1-.516.258l-.06-.001Zm.322 13.273a.76.76 0 0 1-.533-.218.744.744 0 0 1-.222-.529c0-1.517-.12-3.13-.236-4.69-.11-1.505-.216-2.927-.209-4.167 0-.198.08-.388.221-.529a.76.76 0 0 1 1.068 0c.142.14.221.33.221.529 0 1.18.096 2.574.206 4.048.117 1.588.24 3.229.24 4.8a.738.738 0 0 1-.218.534.756.756 0 0 1-.538.222Zm3.188 46.944a.748.748 0 0 1-.755-.674 669.12 669.12 0 0 1-2.504-36.401.744.744 0 0 1 .2-.538.759.759 0 0 1 1.31.478 656.182 656.182 0 0 0 2.502 36.315.752.752 0 0 1-.679.814.452.452 0 0 1-.074.006Zm90.378 16.87a.683.683 0 0 1-.127-.012.734.734 0 0 1-.489-.302.752.752 0 0 1-.13-.559 415.458 415.458 0 0 0 3.762-27.462.744.744 0 0 1 .275-.506.76.76 0 0 1 .557-.165.752.752 0 0 1 .512.273.756.756 0 0 1 .139.259.722.722 0 0 1 .027.292 416.028 416.028 0 0 1-3.775 27.56.743.743 0 0 1-.259.448.76.76 0 0 1-.492.174Z"/>
  <path fill="#FACBDF" d="M107.134 55.028c-1.862.73-2.514 4.075-1.113 5.714 1.401 1.638 4.173.778 4.743-1.468.57-2.247-1.363-4.79-3.286-4.352l-.344.106Z"/>
  <path fill="#1B5EC9" d="M115.081 55.013c-2.655.704-2.585 4.787-.09 5.35 1.579.474 3.517-.648 3.695-2.286.177-1.638-.907-3.776-3.605-3.064Z"/>
  <path fill="#000" d="M125.145 60.941a3.137 3.137 0 0 1-1.771-.524c-.865-.586-1.283-1.765-1.062-3.006.189-1.084.825-1.88 1.703-2.146 1.172-.554 2.407-.524 3.407.107.923.586 1.513 1.61 1.451 2.548a2.6 2.6 0 0 1-.479 1.293 4.013 4.013 0 0 1-3.249 1.728Zm.524-4.598c-.362.009-.717.1-1.035.27a.693.693 0 0 1-.148.056c-.391.103-.609.581-.683.995-.113.644.068 1.292.434 1.54a1.72 1.72 0 0 0 1.311.22 2.499 2.499 0 0 0 1.567-1.009c.127-.17.209-.369.237-.578.018-.345-.243-.893-.767-1.228a1.693 1.693 0 0 0-.916-.266ZM197.46 70.55h-.021a5451.692 5451.692 0 0 0-90.296-1.477.768.768 0 0 1-.536-.216.729.729 0 0 1 0-1.044.768.768 0 0 1 .536-.217c29.97.246 60.366.739 90.323 1.477a.77.77 0 0 1 .533.223.726.726 0 0 1-.013 1.044.768.768 0 0 1-.539.21h.013Z"/>
  <path fill="#1B5EC9" d="M163.014 142.221c-3.189 0-6.393-.045-9.522-.087-5.365-.075-10.912-.151-16.3 0-.525.013-1.405.037-2.072-.509-.565-.468-.736-1.166-.849-1.626l-6.371-25.864c-.252-1.027-.493-2.506.35-3.486.554-.646 1.458-.929 2.692-.839 5.651.408 11.218.668 16.541.774a308.488 308.488 0 0 0 24.75-.509c1.388-.085 2.791-.186 4.168-.284.112 0 .311-.013.686-.022l.861-.023a2.297 2.297 0 0 1 1.935.952 2.218 2.218 0 0 1 .252 2.115c-3.519 8.691-6.405 18.031-8.761 26.022a4.627 4.627 0 0 1-1.665 2.411 4.745 4.745 0 0 1-2.8.949c-1.296.019-2.595.026-3.895.026Zm-19.006-1.659c3.187 0 6.376.044 9.504.087 4.395.059 8.939.122 13.375.061a3.234 3.234 0 0 0 1.904-.648 3.143 3.143 0 0 0 1.134-1.641c2.362-8.015 5.256-17.409 8.803-26.159a.744.744 0 0 0-.371-.953.787.787 0 0 0-.368-.078l-.874.023c-.273 0-.531.013-.606.018a312.012 312.012 0 0 1-12.502.68c-5.493.185-11.065.224-16.562.117a324.655 324.655 0 0 1-16.621-.778c-.498-.035-1.149 0-1.432.317-.202.236-.377.806-.034 2.174l6.386 25.863c.071.291.169.688.358.842.188.154.627.171 1.049.16 2.268-.061 4.562-.085 6.857-.085Z"/>
  <path fill="#1B5EC9" d="M141.808 136.622a.76.76 0 0 1-.499-.183.695.695 0 0 1-.239-.456 684.278 684.278 0 0 0-3.322-27.436.674.674 0 0 1 .145-.522.734.734 0 0 1 .488-.272.776.776 0 0 1 .546.138.71.71 0 0 1 .285.467 715.685 715.685 0 0 1 3.321 27.489.687.687 0 0 1-.164.517.75.75 0 0 1-.498.254l-.063.004Zm10.296-3.284a.758.758 0 0 1-.508-.193.701.701 0 0 1-.23-.474 115.54 115.54 0 0 1 .35-17.745.706.706 0 0 1 .266-.48.767.767 0 0 1 1.044.094.683.683 0 0 1 .166.519 114.313 114.313 0 0 0-.347 17.534.685.685 0 0 1-.038.273.722.722 0 0 1-.379.403.73.73 0 0 1-.278.069h-.046Zm10.185-.005a.772.772 0 0 1-.317-.068.728.728 0 0 1-.4-.472.68.68 0 0 1-.006-.311c1.95-8.852 3.991-17.814 6.067-26.637a.721.721 0 0 1 .592-.567.756.756 0 0 1 .766.328.694.694 0 0 1 .1.266.69.69 0 0 1-.019.282 1957.755 1957.755 0 0 0-6.061 26.619.704.704 0 0 1-.257.402.757.757 0 0 1-.465.158Z"/>
  <path fill="#1B5EC9" d="M160.673 121.429c-5.021 0-10.017-.071-15.145-.143-6.282-.09-12.777-.192-19.44-.133a.736.736 0 0 1-.529-.226.786.786 0 0 1 0-1.091.739.739 0 0 1 .529-.225c6.678-.051 13.183.042 19.472.133 11.048.156 21.486.306 32.831-.249a.737.737 0 0 1 .715.442.796.796 0 0 1-.124.849.75.75 0 0 1-.52.252c-6.126.291-11.974.391-17.789.391Zm-31.112 10.712a.732.732 0 0 1-.54-.2.776.776 0 0 1-.244-.534.79.79 0 0 1 .194-.557.74.74 0 0 1 .519-.251 264.927 264.927 0 0 1 39.06-.997.745.745 0 0 1 .67.51.795.795 0 0 1-.026.59.779.779 0 0 1-.425.398.734.734 0 0 1-.29.044 263.66 263.66 0 0 0-38.845.992l-.073.005Zm-1.214-18.703a.74.74 0 0 1-.469-.172.778.778 0 0 1-.261-.438c-1.267-6.08-2.38-10.564-3.555-15.31-.812-3.278-1.653-6.664-2.62-10.86a1.474 1.474 0 0 0-.649-.92 1.402 1.402 0 0 0-1.095-.17l-2.872.764c-.878.231-1.51.399-1.665.436a.733.733 0 0 1-.794-.294.783.783 0 0 1-.132-.584.785.785 0 0 1 .314-.505.733.733 0 0 1 .273-.12c.136-.032.829-.216 1.632-.428l2.874-.756a2.847 2.847 0 0 1 2.236.344c.332.207.621.48.85.804.228.323.392.69.482 1.08a551.238 551.238 0 0 0 2.62 10.835c1.182 4.762 2.297 9.257 3.572 15.368.041.2.004.409-.103.581a.753.753 0 0 1-.472.335.772.772 0 0 1-.166.01Z"/>
  <path fill="#1B5EC9" d="M109.738 91.378a3.584 3.584 0 0 1-1.405-.27c-1.53-.65-2.325-2.547-1.77-4.23.44-1.338 1.397-2.38 2.846-3.096h.015a34.986 34.986 0 0 1 4.421-1.72c.687-.214 1.423-.411 2.207-.26 1.782.347 2.796 2.186 2.856 5.181.012.55.032 1.574-.686 2.238-.379.312-.833.52-1.317.603l-5.204 1.254a8.321 8.321 0 0 1-1.963.3Zm.333-6.247c-1.07.53-1.77 1.277-2.079 2.217-.308.941.128 2.043.93 2.383.656.279 1.482.114 2.414-.111l5.205-1.254a1.69 1.69 0 0 0 .651-.243c.224-.209.213-.795.205-1.11-.02-1.033-.222-3.464-1.638-3.737-.44-.086-.941.054-1.47.217-1.441.45-2.851.997-4.218 1.638Zm22.171 89.105a3.613 3.613 0 0 1-1.481-.306c-1.264-.552-2.132-1.795-2.32-3.326-.188-1.531.35-2.946 1.441-3.788a1.09 1.09 0 0 1 .136-.082.795.795 0 0 1 .122-.102c1.152-.749 2.672-.805 4.064-.133 1.392.673 2.293 1.893 2.41 3.263.117 1.37-.564 2.723-1.825 3.619a4.401 4.401 0 0 1-2.547.855Zm-1.362-6.301a.529.529 0 0 1-.076.067c-.658.506-.991 1.434-.869 2.42s.67 1.803 1.432 2.137c.762.333 1.736.187 2.547-.398.811-.585 1.27-1.449 1.201-2.273-.07-.825-.672-1.606-1.568-2.039-.895-.433-1.881-.42-2.579.035a.773.773 0 0 1-.088.051Zm41.76 6.76a4.172 4.172 0 0 1-2.683-.883c-1.316-1.087-1.67-3.186-.812-4.773.752-1.393 2.289-2.33 4.02-2.459 1.148-.272 2.557.133 3.614 1.049.922.799 1.381 1.826 1.257 2.812-.246 1.99-2.009 3.694-4.286 4.142-.365.073-.735.11-1.11.112Zm1.263-6.7c-.143 0-.284.019-.424.052a.56.56 0 0 1-.148.025c-1.227.075-2.35.733-2.86 1.687-.51.953-.322 2.273.446 2.908.595.491 1.52.656 2.542.456 1.39-.274 2.897-1.342 3.083-2.855.062-.485-.212-1.032-.752-1.499a3.049 3.049 0 0 0-1.887-.77v-.004Zm-35.089-1.992a.754.754 0 0 1-.702-.486.741.741 0 0 1 .207-.826c5.774-5.03 11.126-8.959 16.792-13.119 2.907-2.135 5.914-4.34 9.056-6.758a.764.764 0 0 1 .835-.056.745.745 0 0 1 .278 1.024.739.739 0 0 1-.193.22c-3.157 2.437-6.17 4.638-9.084 6.777-5.644 4.138-10.966 8.047-16.693 13.038a.744.744 0 0 1-.496.186Z"/>
  <path fill="#1B5EC9" d="M166.075 166.852a.815.815 0 0 1-.479-.152l-27.552-19.822a.687.687 0 0 1-.138-1.017.826.826 0 0 1 1.098-.128l27.55 19.827a.734.734 0 0 1 .27.366.67.67 0 0 1-.008.442.728.728 0 0 1-.285.356.831.831 0 0 1-.456.134v-.006Z"/>
  <path fill="#000" d="M263.549 169.097c-.324 0-.645-.09-.924-.264a1.82 1.82 0 0 1-.664-.717c-7.153-13.431-15.808-24.517-25.71-32.965a317.076 317.076 0 0 1 2.947 10.571c.143.544.336 1.291.145 2.045-.222.879-1.073 1.682-2.063 1.447-.734-.172-1.13-.831-1.345-1.186a151.163 151.163 0 0 1-11.637-23.592c-.598-1.535-.367-2.798.598-3.295.4-.184.842-.241 1.273-.164 1.566.179 2.986.803 4.358 1.406l18.324 8.049c.037.015 3.521 1.854 3.103 3.355-.29 1.045-1.702.816-2.305.718-1.467-.21-2.808-.616-4.11-1.009-.888-.267-1.803-.544-2.751-.756a94.645 94.645 0 0 1-3.34-.815c.645.632 1.35 1.297 2.001 1.913l1.401 1.323a97.186 97.186 0 0 1 14.251 17.297l1.36 2.102a584.755 584.755 0 0 0 4.017 6.154c.807 1.217 2.66 4.475 2.905 6.227.066.437-.022.883-.247 1.257a1.803 1.803 0 0 1-.982.79 1.783 1.783 0 0 1-.605.109Zm-28.703-36.814c.165 0 .326.058.455.164.183.142.35.278.519.41.203.161.4.314.576.463 10.377 8.652 19.41 20.114 26.851 34.069a.34.34 0 0 0 .185.176c.081.032.17.032.249-.004a.322.322 0 0 0 .198-.148.347.347 0 0 0 .043-.249c-.173-1.236-1.668-4.088-2.664-5.589-1.467-2.203-2.538-3.866-4.035-6.17l-1.359-2.1a95.625 95.625 0 0 0-14.027-17.029c-.418-.403-.893-.852-1.388-1.323-1.056-.996-2.254-2.128-3.136-3.05-.202-.212-.402-.443-.613-.686l-.202-.233a.774.774 0 0 1-.075-.904.73.73 0 0 1 .358-.305.711.711 0 0 1 .462-.023 97.692 97.692 0 0 0 5.847 1.512c1.003.225 1.946.508 2.858.784 1.307.395 2.543.767 3.912.964l.145.023a8.757 8.757 0 0 0-1.734-1.21l-18.311-8.051c-1.284-.567-2.592-1.134-3.945-1.295a1.05 1.05 0 0 0-.453.014c-.172.088-.172.665.106 1.381a149.598 149.598 0 0 0 11.52 23.352c.081.132.294.482.429.514.055.013.259-.128.316-.355.086-.34-.009-.756-.141-1.272a327.568 327.568 0 0 0-3.636-12.852.782.782 0 0 1 .109-.675.732.732 0 0 1 .59-.309l-.009.006Z"/>
  <path fill="#3982F0" d="M78.293 171.374c1.465.358 2.333.517 3.707 1.144a51.774 51.774 0 0 1 9.337 5.529c.96.717 1.933 1.512 2.41 2.616 1.049 2.418-.66 5.119-2.509 6.99-4.615 4.666-10.54 7.743-16.36 10.746-2.072 1.068-7.093-.046-6.435.364 1.653 1.03-3.563.675-3.491-1.144.45-11.44 2.505-13.295 4.964-18.291 1.554-3.136 6.198-8.486 8.377-7.954Z"/>
  <path fill="#000" d="M68.514 199.333c-.224 0-.434 0-.628-.025-.874-.081-1.438-.354-1.714-.831a.714.714 0 0 1-.1-.411c.086-1.348.414-2.271 2.223-4.507a.781.781 0 0 1 1.07-.125.717.717 0 0 1 .13 1.035c-1.428 1.765-1.764 2.488-1.868 3.315.887.28 4.258-.071 9.032-1.882 5.603-2.125 10.524-5.268 13.507-8.622.524-.587.9-1.283 1.1-2.035.201-.751.22-1.536.056-2.297a4.449 4.449 0 0 0-.925-1.884 4.669 4.669 0 0 0-1.702-1.284c-.893-.396-1.795-.429-3.536.627-2.396 1.447-5.218 3.578-7.955 5.973a.763.763 0 0 1-.552.204.818.818 0 0 1-.293-.066.788.788 0 0 1-.243-.173.733.733 0 0 1-.199-.538.712.712 0 0 1 .076-.282.76.76 0 0 1 .183-.232c2.803-2.463 5.702-4.642 8.168-6.135 1.952-1.185 3.443-1.398 4.98-.717.878.389 1.65.969 2.253 1.698a5.902 5.902 0 0 1 1.224 2.494 6.321 6.321 0 0 1-.065 2.973 6.447 6.447 0 0 1-1.422 2.634c-6.106 6.872-17.919 11.093-22.8 11.093Z"/>
  <path fill="#000" d="M73.522 190.375a.725.725 0 0 1-.667-.423.708.708 0 0 1 .118-.773c.68-.756.868-.937 1.372-1.419l.587-.563a.74.74 0 0 1 1.007.032.71.71 0 0 1 .017.991l-.591.572c-.49.468-.654.626-1.3 1.342a.748.748 0 0 1-.543.241Z"/>
  <path fill="#3982F0" d="M62.896 183.098c-2.589-5.002-6.208-9.552-10.948-12.209-.757-.426-1.607-.81-2.445-.624-.918.204-1.583 1.033-2.137 1.841-4.559 6.664-8.818 17.385-8.09 25.6.253.983.778 1.86 1.507 2.516a4.22 4.22 0 0 0 1.274.664c1.172.43 2.711.722 3.47.684 5.893-.307 8.988.038 14.874-.267 1.749-.09 4.887-2.626 4.826-1.948-.066.741.72-1.344.72-1.344.677-2.929-1.557-12.021-3.051-14.913Z"/>
  <path fill="#000" d="M55.252 201.572a.663.663 0 0 1-.511-.203.821.821 0 0 1-.233-.544.846.846 0 0 1 .184-.568.692.692 0 0 1 .49-.257c5.491-.604 8.905-1.769 9.433-2.422-.09-.102-.33-.312-.92-.589-1.663-.786-3.365-1.687-4.998-2.555-3.11-1.659-6.326-3.375-9.565-4.377-2.234-.694-4.343-.332-5.945 1.014-1.6 1.346-2.579 3.603-2.58 6.002.002.264.053.525.151.765.098.239.24.454.417.629.416.452 1.063.843 1.899 1.179a.711.711 0 0 1 .477.381.884.884 0 0 1 .055.649.796.796 0 0 1-.156.283.714.714 0 0 1-.248.188.631.631 0 0 1-.296.055.642.642 0 0 1-.29-.084c-1.042-.393-1.857-.914-2.424-1.527a3.44 3.44 0 0 1-.737-1.144 3.753 3.753 0 0 1-.26-1.378c0-2.887 1.176-5.599 3.142-7.254 1.966-1.655 4.512-2.103 7.18-1.275 3.356 1.039 6.63 2.787 9.794 4.475 1.625.867 3.304 1.769 4.935 2.529.493.23 1.99.932 1.81 2.237-.145 1.065-1.388 1.863-4.031 2.586a45.88 45.88 0 0 1-6.703 1.201l-.07.004Z"/>
  <path fill="#000" d="M65.328 198.214h-.022a.748.748 0 0 1-.681-.488.766.766 0 0 1-.05-.293c.044-1.878-3.546-7.016-7.533-10.781-2.405-2.27-3.695-2.811-4.085-2.775a.76.76 0 0 1-.293-.028.795.795 0 0 1-.259-.141.777.777 0 0 1-.241-.814.754.754 0 0 1 .367-.451.722.722 0 0 1 .281-.088c1.139-.112 2.903.951 5.25 3.174 3.272 3.09 8.08 9.02 8.009 11.935a.768.768 0 0 1-.221.529.74.74 0 0 1-.522.221Zm-18.664-19.457a.744.744 0 0 1-.626-.341.776.776 0 0 1-.109-.573 4.07 4.07 0 0 1 1.277-2.167 3.972 3.972 0 0 1 2.295-.978.736.736 0 0 1 .29.042.758.758 0 0 1 .504.675.777.777 0 0 1-.188.552.738.738 0 0 1-.517.253 2.467 2.467 0 0 0-1.403.607 2.517 2.517 0 0 0-.788 1.323.758.758 0 0 1-.26.437.73.73 0 0 1-.475.17Z"/>
  <path fill="#3982F0" d="M275.623 217.696c4.535-4.417.991-8.932-3.684-11.795-18.992-12.774-33.08-31.727-51.111-45.847-4.196-3.991-8.502-1.934-11.982 2.066-10.672 11.616-22.279 22.573-32.618 34.448a6.174 6.174 0 0 0-.28 7.797c3.121 4.055 9.615 7.677 12.478 10.01a546.615 546.615 0 0 1 18.832 14.817 537.988 537.988 0 0 1 26.993 23.744c6.525 7.089 10.779 2.219 15.272-3.858l26.1-31.382Z"/>
  <path fill="#fff" d="M216.174 178.156c.134 2.781 3.543 4.945 6.187 4.248 2.645-.698 4.153-3.625 3.797-6.406a3.983 3.983 0 0 0-.599-1.771 3.962 3.962 0 0 0-1.737-1.333c-3.303-1.426-7.362.809-7.691 4.227l.043 1.035Z"/>
  <path fill="#FACBDF" d="M219.428 175.737c1.008-1.514 1.439-3.389 1.027-5.177-1.154-4.942-7.707-4.819-9.419-.332-2.454 5.41 4.651 11.144 8.392 5.509Z"/>
  <path fill="#000" d="M250.645 253.086a2.888 2.888 0 0 1-2.181-.994c-4.292-4.898-9.276-10.025-14.822-15.239l-19.219-18.067-2.342-2.207c-9.972-9.389-20.284-19.099-31.584-26.976a3.094 3.094 0 0 1-1.306-2.236 3.104 3.104 0 0 1 .849-2.449c.774-.804 1.567-1.644 2.332-2.457.765-.813 1.582-1.678 2.346-2.469a2.7 2.7 0 0 1 3.791-.077l.978.933c3.811 3.629 10.903 10.387 14.781 13.976l47.023 43.507c.409.373.823.746 1.237 1.119a75.018 75.018 0 0 1 2.447 2.277c.27.269.804.733 1.541 1.345a2.895 2.895 0 0 1 1.037 1.975 2.888 2.888 0 0 1-.664 2.128 539.167 539.167 0 0 0-4.019 4.835 2.86 2.86 0 0 1-2.176 1.059l-.049.017Zm-64.003-72.427a1.219 1.219 0 0 0-.857.373c-.758.786-1.558 1.636-2.334 2.457-.777.821-1.564 1.66-2.344 2.469a1.608 1.608 0 0 0-.356.586 1.601 1.601 0 0 0 .593 1.839c11.383 7.94 21.741 17.689 31.752 27.116l2.342 2.205 19.22 18.068c5.581 5.246 10.6 10.409 14.928 15.343a1.415 1.415 0 0 0 1.664.347 1.35 1.35 0 0 0 .463-.373 449.86 449.86 0 0 1 4.036-4.85 1.38 1.38 0 0 0 .267-.485c.056-.177.076-.364.058-.55a1.41 1.41 0 0 0-.508-.97c-.782-.647-1.332-1.119-1.638-1.431-.771-.762-1.598-1.51-2.398-2.238a52.587 52.587 0 0 1-1.248-1.138l-47.024-43.507c-3.887-3.596-10.985-10.357-14.797-13.989l-.976-.932a1.215 1.215 0 0 0-.836-.34h-.007Z"/>
  <path fill="#FF5400" d="M252.87 212.632c-.468-.431-.987-.882-1.61-.963-.689-.099-1.354.248-1.94.616a19.027 19.027 0 0 0-5.426 5.14c-.436.621-.846 1.305-.884 2.058-.067 1.321.999 2.409 2.007 3.294a84.386 84.386 0 0 0 7.796 6.071c.446.306.915.618 1.454.699.847.129 1.662-.331 2.368-.811 1.932-1.316 5.546-3.774 5.406-6.414-.123-2.337-3.444-4.398-5.003-5.837l-4.168-3.853Z"/>
  <path fill="#fff" d="M261.257 222.971a.497.497 0 0 1-.109 0c-1.059-.162-2.374-.313-4.117-.478a.722.722 0 0 1-.496-.267.753.753 0 0 1-.167-.547.75.75 0 0 1 .262-.508.73.73 0 0 1 .535-.171c1.777.164 3.104.321 4.2.487a.733.733 0 0 1 .502.258.757.757 0 0 1-.076 1.056.72.72 0 0 1-.534.18v-.01Zm-6.335 6.598a.716.716 0 0 1-.413-.131.738.738 0 0 1-.268-.349c-.183-.485-.391-1.307-.594-2.121-.133-.532-.316-1.26-.389-1.43a.756.756 0 0 1 .281-1.019.72.72 0 0 1 .557-.067.736.736 0 0 1 .441.355c.133.237.252.679.531 1.79.183.728.389 1.551.548 1.958.044.114.058.236.044.357a.765.765 0 0 1-.386.573.703.703 0 0 1-.341.084h-.011Zm-3.598-12.223h-.026a.716.716 0 0 1-.507-.235.765.765 0 0 1-.197-.536v-1.044c-.011-.679-.024-1.523-.019-2.18 0-.241 0-.588-.018-.934-.026-.838-.029-1.12.022-1.331a.75.75 0 0 1 .329-.446.716.716 0 0 1 .538-.09.732.732 0 0 1 .45.318.75.75 0 0 1 .107.545 14 14 0 0 0 .013.959c.013.329.022.712.02.982 0 .639 0 1.473.017 2.146 0 .606.014.957 0 1.12a.732.732 0 0 1-.729.726Zm.668-5.913v.032c0 .011-.003-.019 0-.032Zm-4.195 8.755a.677.677 0 0 1-.166-.019c-.391-.093-.818-.2-1.247-.304-1.052-.262-2.243-.561-2.716-.603a.723.723 0 0 1-.495-.271.76.76 0 0 1 .104-1.057.729.729 0 0 1 .537-.166c.574.058 1.71.34 2.922.637.424.104.848.209 1.233.3a.74.74 0 0 1 .564.812.763.763 0 0 1-.239.475.724.724 0 0 1-.487.188l-.01.008Z"/>
  <path fill="#fff" d="M253.825 226.21a.707.707 0 0 1-.362-.102c-.71-.431-2.422-1.876-3.264-2.814-.362-.404-.765-.777-1.188-1.171a18.622 18.622 0 0 1-1.336-1.33.772.772 0 0 1-.032-.974c.519-.676 2.531-2.991 3.302-3.554a.706.706 0 0 1 .886.049 92.963 92.963 0 0 0 1.86 1.642c.215.187 1.215 1.182 1.978 1.966 1.883 1.935 1.885 2.026 1.896 2.366a.745.745 0 0 1-.058.317.736.736 0 0 1-.179.265 41.539 41.539 0 0 0-2.169 2.251c-.289.314-.558.606-.812.869a.695.695 0 0 1-.522.22Zm-4.646-5.956c.253.253.519.501.794.751.428.399.871.812 1.278 1.264.77.805 1.598 1.546 2.478 2.214l.376-.407a49.643 49.643 0 0 1 1.741-1.827c-.842-.92-2.787-2.888-3.073-3.128-.378-.319-1-.871-1.428-1.254-.613.607-1.565 1.678-2.166 2.391v-.004Z"/>
</svg>
