<svg xmlns="http://www.w3.org/2000/svg" width="299" height="299" fill="none" viewBox="0 0 299 299">
  <path fill="#F4F7FA" d="M120.225 41.068c5.843 3.896 13.58 5.36 20.489 5.892 3.248 0 11.501-1.442 14.729-1.8 4.942-.55 6.976-4.748 11.488-6.121 5.008-1.524 10.851.262 15.908.262 8.611 0 16.704 1.156 25.039 3.24 7.667 1.917 19.538 1.837 25.333 7.954 3.239 3.419 5.445 7.92 8.576 11.488 5.335 6.08 10.446 11.567 17.085 16.202 6.555 4.576 7.496 11.538 10.278 18.493 2.113 5.282 4.993 10.417 5.76 16.136 1.87 13.936 2.446 28.121 5.434 41.83.667 3.063.478 6.003.589 9.099.137 3.834 2.354 8.433 3.567 12.012 3.509 10.352 7.881 25.103-.36 34.662-4.321 5.013-12.969 7.534-19.475 7.954-6.583.424-13.568 1.266-19.671 3.96-5.764 2.544-10.775 6.816-15.841 10.474-2.897 2.091-6.427 3.9-8.903 6.513-8.043 8.49-13.021 19.344-22.65 26.447-4.83 3.563-11.52 7.43-17.74 7.43-1.598 0-2.628-.669-3.928-1.571-3.997-2.776-8.063-5.45-12.045-8.249-11.024-7.749-21.948-17.239-34.334-22.813-4.646-2.09-6.894-3.311-10.049-7.692-3.271-4.544-8.925-6.75-14.139-3.731-2.055 1.19-4.178 5.004-5.335 6.972-2.409 4.094-5.731 8.675-9.852 11.161-10.241 6.177-20.572 5.492-31.356 1.178-5.09-2.036-8.612-4.661-12.11-8.903-3.26-3.951-7.333-8.101-7.333-13.485 0-3.501.907-8.31-.13-11.652-.622-2.002-4.309-4.641-5.827-5.695-3.207-2.227-6.262-3.091-8.051-6.808-1.795-3.728-1.899-8.286-1.899-12.339 0-5.538-.857-11.884 1.179-17.119 1.168-3.004 6.802-10.946 5.302-13.681-1.518-2.769-2.492-5.822-3.928-8.641-3.166-6.219-7.188-11.954-10.31-18.198-2.105-4.212-5.004-10.084-3.666-14.991.628-2.302 2.974-2.247 4.943-2.52 3.218-.447 6.298-.47 9.426-1.473 3.862-1.239 7.287-2.624 10.605-5.008 2.691-1.934 5.819-5.595 8.968-6.644 1.894-.632 4.297-.055 6.284-.491 7.004-1.538 13.76-3.85 20.686-5.663 3.772-.987 8.666-2.575 11.194-5.826 2.915-3.747 2.357-9.945 2.357-14.336 0-12.042-1.98-25.323 7.07-34.825 4.457-4.68 12.011-4.554 18.002-3.666 3.363.498 5.872 2.736 8.641 4.582Z"/>
  <path fill="#FACBDF" d="M31.977 71.507c-6.417 6.106-5.354 16.072-3.776 24.611a544.436 544.436 0 0 1 9.06 96.982c.024 7.313.156 15.331 5.102 20.887 6.383 7.168 17.729 7.072 27.52 6.443 56.889-3.65 116.054.286 173.08.268 5.556 0 9.464-5.93 13.712-9.375 4.864-3.952 5.626-10.758 6.036-16.866 2.359-35.161 4.718-70.322 7.075-105.484.489-7.293.594-15.607-4.883-20.676-4.995-4.621-12.728-4.729-19.657-4.554-13.208 0-26.452.994-39.66 1.005-58.365.057-102.535-.096-115.637-.252-13.052-.167-47.301-3.15-57.972 7.011Z"/>
  <path fill="#000" d="M30.618 144.698c-1.328 0-2.707-.303-3.466-1.51-.418-.665-.5-1.42-.57-2.028l-.685-6.346c-.077-.712-.144-1.434-.208-2.132-.125-1.369-.257-2.803-.471-4.18-1.138-7.365 2.467-7.973 4.216-8.265.218-.037.425-.07.57-.111 1.912-.497 25.865-1.506 51.465-2.521l6.935-.278a1854.732 1854.732 0 0 1 52.704-1.463c8.73-.117 17.573-.17 26.299-.166 8.726.004 17.578.078 26.298.209 8.764.133 17.645.331 26.422.587 8.728.258 17.569.587 26.281.96.406.02 1.507.04 3.036.067 11.004.195 21.44.504 23.236 1.318 1.992.9 1.418 5.842.313 13.28a179.212 179.212 0 0 0-.417 2.912c-.142 1.087-.368 2.319-1.247 3.186-1.053 1.04-2.55 1.142-3.995 1.155-22.648.225-45.704-.064-68.001-.346-54.99-.694-111.851-1.412-167.218 5.566-.497.067-.997.102-1.497.106Zm135.336-27.435a1822.369 1822.369 0 0 0-51.085.708c-8.748.24-17.63.551-26.39.919-1.422.059-3.853.156-6.938.278-14.702.586-49.14 1.955-51.153 2.476-.216.056-.453.095-.704.138-1.724.288-3.868.648-2.961 6.474.222 1.426.355 2.875.484 4.277.062.693.129 1.408.204 2.108l.685 6.347c.051.489.107.995.329 1.349.455.724 1.57.947 3.51.702 55.469-6.991 112.382-6.272 167.422-5.577 22.29.281 45.346.571 67.969.346 1.138-.012 2.307-.076 2.96-.722.524-.518.673-1.369.791-2.265.118-.895.264-1.879.421-2.933.38-2.523.799-5.38.949-7.706.218-3.52-.357-3.9-.362-3.911-1.776-.8-17.492-1.092-22.656-1.187a204.605 204.605 0 0 1-3.064-.067 1834.703 1834.703 0 0 0-52.661-1.547c-8.713-.131-17.554-.196-26.276-.209l-1.474.002Z"/>
  <path fill="#fff" d="M49.663 161.696h-.046c-1.075 0-2.057-.509-2.844-1.449-1.393-1.668-1.946-4.447-1.726-5.654-.01-1.138.06-2.452.591-3.643.628-1.404 1.859-2.41 3.213-2.624 1.874-.295 3.527.868 4.335 2.153.89 1.412 1.023 3.046 1.038 4.313.013 1.026.05 4.146-1.696 5.821a3.916 3.916 0 0 1-1.316.824 4.066 4.066 0 0 1-1.55.259Zm-.224-11.96c-.112 0-.224.009-.334.027-1.014.16-1.731 1.015-2.065 1.764-.432.967-.482 2.076-.47 3.133a.74.74 0 0 1-.017.161c-.152.661.235 3.119 1.41 4.53.503.602 1.047.896 1.667.906.337.02.673-.028.988-.141a2.4 2.4 0 0 0 .843-.513c.859-.824 1.28-2.432 1.251-4.778-.019-1.61-.273-2.719-.82-3.585-.475-.766-1.418-1.507-2.453-1.507v.003Zm11.917 11.829c-1.724 0-3.192-1.013-3.827-2.732l-.013-.038c-.821-2.704-.742-5.377.23-7.528.7-1.549 2.683-3.07 4.674-2.821 1.466.181 3.359 1.335 4.059 5.798.644 4.128-1.639 6.62-4.032 7.187a4.6 4.6 0 0 1-1.09.134Zm-2.39-3.196c.61 1.631 2.056 1.91 3.115 1.66 1.75-.415 3.402-2.334 2.897-5.567-.436-2.787-1.414-4.413-2.753-4.579-1.193-.151-2.614.906-3.086 1.957-.817 1.839-.887 4.157-.17 6.529h-.002Zm15.586 2.584a5.444 5.444 0 0 1-3.035-.931 4.616 4.616 0 0 1-1.852-2.512.711.711 0 0 1-.237-.473c-.137-1.737-.292-3.707.4-5.541.667-1.761 2.465-3.615 4.819-3.526.741.029 1.877.429 2.844 1.469.916.986 1.95 2.845 1.68 6.105-.23 2.78-.929 4.636-3.688 5.306a3.94 3.94 0 0 1-.931.103Zm-3.674-4.967c.056.092.09.195.099.301.095 1.113.569 1.972 1.43 2.557.935.638 2.06.759 2.708.602 1.734-.421 2.329-1.359 2.549-4.016.23-2.751-.58-4.253-1.301-5.029-.72-.775-1.44-.971-1.77-.984-1.517-.058-2.83 1.251-3.33 2.572-.47 1.245-.468 2.66-.385 3.997Zm65.98 4.505a4.488 4.488 0 0 1-2.596-.839c-1.166-.83-1.864-2.113-2.014-3.669a.675.675 0 0 1-.051-.216c-.137-1.738-.292-3.706.4-5.54.665-1.763 2.465-3.615 4.819-3.526 1.517.058 2.971.955 3.808 2.343.624 1.037.694 2.175.758 3.271.016.234.029.466.05.698.442 5.085-2.246 6.741-3.888 7.275a4.152 4.152 0 0 1-1.286.203Zm-3.224-5.775a.7.7 0 0 1 .101.388c-.059 1.486.447 2.687 1.428 3.385.347.259.756.433 1.19.508.433.074.88.047 1.3-.08 2.143-.698 3.133-2.699 2.865-5.785-.021-.243-.036-.485-.051-.725-.061-.974-.117-1.893-.569-2.633-.569-.947-1.574-1.582-2.554-1.62-1.518-.056-2.832 1.249-3.331 2.572-.458 1.237-.457 2.653-.373 3.99h-.006Zm-46.968 6.223a4.054 4.054 0 0 1-1.996-.511c-2.612-1.45-2.762-4.712-2.603-7.374 0-.025 0-.052.01-.08.55-3.08 2.04-5.023 4.203-5.461 1.483-.303 3.132.335 4.204 1.622.79.949 1.282 2.205 1.504 3.843.322 2.379-.09 4.411-1.19 5.877-.896 1.194-2.512 2.084-4.132 2.084Zm-3.085-7.76c-.19 3.322.38 5.174 1.853 5.998 1.37.765 3.245.015 4.132-1.168 1.102-1.468 1.108-3.443.918-4.844-.19-1.368-.569-2.392-1.185-3.126-.59-.707-1.654-1.323-2.703-1.109-2.021.411-2.755 2.819-3.015 4.249Zm98.938 6.935h-.028a4.27 4.27 0 0 1-1.836-.372 4.096 4.096 0 0 1-1.47-1.114c-1.407-1.678-1.46-4.233-1.263-5.255 0-1.138.063-2.45.594-3.64.626-1.405 1.856-2.411 3.212-2.624 1.874-.298 3.526.868 4.336 2.153.889 1.413 1.022 3.047 1.037 4.312.013 1.051.047 3.84-1.602 5.428-.763.741-1.764 1.112-2.98 1.112Zm-.208-11.597c-.112 0-.224.009-.334.027-1.015.159-1.732 1.016-2.065 1.763-.433.968-.482 2.079-.471 3.133a.617.617 0 0 1-.019.161c-.157.691-.11 2.856.949 4.118.252.307.576.552.946.716.37.164.776.241 1.183.226h.021c.808 0 1.43-.221 1.897-.676 1.202-1.156 1.172-3.588 1.162-4.387-.021-1.609-.273-2.718-.819-3.585-.474-.752-1.415-1.493-2.45-1.493v-.003Zm11.987 12.014c-.201 0-.404-.013-.603-.038-1.644-.21-2.877-1.259-3.381-2.878 0-.018-.012-.036-.016-.054a12.147 12.147 0 0 1 .759-7.43c.717-1.66 1.948-2.211 2.845-2.381a4.667 4.667 0 0 1 2.056.109c.667.189 1.28.524 1.788.978 1.138 1.099 1.769 2.771 1.822 4.841.048 1.801-.39 3.464-1.266 4.809-.81 1.25-2.399 2.044-4.004 2.044Zm-2.522-3.303c.428 1.341 1.388 1.734 2.122 1.828 1.2.154 2.515-.41 3.123-1.343.719-1.103 1.078-2.49 1.038-4.006-.031-1.182-.296-2.807-1.383-3.857a3.01 3.01 0 0 0-1.151-.611 3.101 3.101 0 0 0-1.314-.074c-.787.149-1.375.656-1.745 1.512a10.774 10.774 0 0 0-.688 6.551h-.002Zm15.475 3.305a4.364 4.364 0 0 1-2.153-.559c-.79-.451-1.752-1.337-2.182-3.06a.711.711 0 0 1-.163-.363c-.228-1.658-.484-3.537.062-5.331.524-1.723 2.111-3.599 4.362-3.648h.099c4.109 0 4.625 5.688 4.671 6.343.235 3.348-.748 5.407-3.002 6.297a4.642 4.642 0 0 1-1.694.321Zm-3.112-5.074a.735.735 0 0 1 .112.309c.153 1.419.717 2.441 1.625 2.96a2.898 2.898 0 0 0 2.484.141c1.006-.397 2.314-1.332 2.068-4.86-.014-.205-.38-4.989-3.169-4.989h-.054c-1.414.031-2.546 1.332-2.933 2.602-.368 1.213-.289 2.564-.133 3.847v-.01Zm15.318 5.059a5.493 5.493 0 0 1-2.136-.465c-1.946-.829-2.782-3.119-2.556-7.006 0-2.22 1.428-4.799 3.842-5.29 1.36-.277 2.871.306 3.852 1.482.842 1.012 1.153 2.262 1.361 3.462.545 3.109-.165 5.73-1.896 7.013a4.082 4.082 0 0 1-2.467.804Zm-.162-11.38a1.858 1.858 0 0 0-.379.036c-1.642.335-2.655 2.278-2.64 3.887v.046c-.189 3.182.38 5.074 1.658 5.617 1.179.5 2.236.446 3.057-.161 1.282-.95 1.781-3.052 1.327-5.627-.176-1.007-.424-2.044-1.052-2.796-.436-.529-1.187-1.002-1.971-1.002Zm-106.753 11.459a6.87 6.87 0 0 1-2.466-.531c-2.666-1.051-2.613-5.743-2.494-6.624a.033.033 0 0 0 0-.014c.209-1.33.514-2.719 1.328-3.889.977-1.41 2.581-2.193 4.079-1.994 2.376.31 3.535 2.742 3.825 4.913.074.558.653 5.5-1.983 7.43a3.77 3.77 0 0 1-2.289.709Zm-3.463-6.961c-.167 1.238.174 4.539 1.568 5.089 1.394.549 2.5.556 3.249.009 1.388-1.017 1.706-3.873 1.401-6.095-.208-1.563-.996-3.461-2.524-3.66-1.058-.138-2.073.584-2.609 1.359-.609.879-.875 1.953-1.085 3.298Zm15.589 6.855a5.819 5.819 0 0 1-1.548-.227c-1.837-.507-3.704-3.033-3.603-4.858-.104-1.631-.089-3.526.759-5.174.847-1.647 2.844-3.106 5.014-2.731 2.541.442 3.914 3.116 3.914 5.404 0 3.474-.774 5.799-2.304 6.886a3.752 3.752 0 0 1-2.232.7Zm-.053-11.598c-1.262 0-2.441.968-2.972 1.984-.704 1.352-.709 2.954-.609 4.486a.524.524 0 0 1 0 .097c-.085 1.118 1.369 3.097 2.509 3.411 1.037.286 1.84.21 2.466-.232 1.096-.788 1.706-2.823 1.706-5.732 0-1.729-.999-3.688-2.668-3.987a2.605 2.605 0 0 0-.432-.027Z"/>
  <path fill="#000" d="M55.547 198.552c.387 3.83 6.612 3.786 13.675 3.961 8.094.201 17.303.288 20.49 0 2.63-.237 3.033-6.204 3.16-12.012.105-4.7.517-8.483-1.044-9.748-1.837-1.489-8.6-2.051-15.984-2.055-8.307 0-17.064.47-19.007 1.671-1.258.779-1.726 3.74-1.819 7.184-.104 3.868.265 8.329.529 10.999Z"/>
  <path fill="#000" d="M81.64 203.698c-3.938 0-8.66-.081-12.871-.192l-.987-.025c-6.87-.166-12.821-.31-13.24-4.706-.427-4.476-.602-8.279-.524-11.305.118-4.562.802-7.089 2.147-7.948 2.569-1.642 14.11-1.824 19.062-1.824h.091c6.181 0 14.017.4 16.253 2.272 1.59 1.342 1.494 4.312 1.363 8.431-.021.679-.044 1.382-.06 2.108-.137 6.406-.543 12.685-3.816 12.988-1.456.143-4.174.201-7.418.201Zm-6.419-24.459c-9.43 0-16.753.636-18.236 1.584-.381.247-1.303 1.395-1.44 6.695-.078 2.961.097 6.707.517 11.114.29 3.041 5.605 3.171 11.757 3.318l.988.025c7.633.192 16.936.299 20.117 0 2.183-.203 2.359-8.408 2.424-11.496.015-.732.038-1.441.059-2.124.11-3.41.204-6.353-.815-7.208-1.427-1.196-7.137-1.916-15.266-1.916l-.105.008Z"/>
  <path fill="#fff" d="M73.094 196.698c-3.499 0-6.437-.117-7.566-.65-.535-.252-.92-.85-1.178-1.829-.576-2.195-.503-6.866.689-8.461.222-.3.599-.801 4.858-.995a75.41 75.41 0 0 1 7.07.038c4.766.269 4.827 3.098 4.86 4.616v.269a53.3 53.3 0 0 0 .094 1.752c.129 2.053.223 3.537-.75 4.468-.626.6-1.584.845-3.012.768-.338-.016-1.151 0-2.192 0-.977.017-1.946.024-2.873.024Zm-6.87-1.956c1.243.569 6.972.505 9.732.474 1.105-.013 1.906-.022 2.303 0 .933.05 1.55-.066 1.837-.34.487-.467.406-1.738.305-3.346a56.663 56.663 0 0 1-.094-1.797v-.285c-.03-1.463-.065-2.995-3.415-3.183-4.592-.26-9.788.009-10.632.41-.44.675-.732 2.427-.718 4.328.002 2.398.464 3.564.681 3.739Z"/>
  <path fill="#fff" d="M79.976 187.042a.723.723 0 0 1-.44-.149.775.775 0 0 1-.27-.39.804.804 0 0 1 .002-.48.772.772 0 0 1 .273-.386c3.475-2.591 9.747-6.938 12.714-6.938.197 0 .387.082.527.227a.793.793 0 0 1 0 1.095.726.726 0 0 1-.527.229c-1.808 0-6.347 2.546-11.845 6.647a.735.735 0 0 1-.434.145Zm11.21 16.656a.76.76 0 0 1-.35-.091c-4.002-2.217-9.038-6.008-10.888-7.765a.797.797 0 0 1-.058-1.105.73.73 0 0 1 1.063-.04c1.79 1.693 6.683 5.381 10.584 7.542a.763.763 0 0 1 .331.368.807.807 0 0 1 .042.504.775.775 0 0 1-.265.422.727.727 0 0 1-.46.165Zm-35.362-1.399a.735.735 0 0 1-.413-.128.776.776 0 0 1-.276-.345.803.803 0 0 1 .15-.841c2.96-3.198 5.404-5.602 9.864-7.401a.713.713 0 0 1 .57.014.757.757 0 0 1 .395.428.804.804 0 0 1-.014.593.767.767 0 0 1-.412.411c-4.187 1.688-6.412 3.876-9.328 7.03a.762.762 0 0 1-.536.239Zm10.102-16.022a.72.72 0 0 1-.339-.086 150.809 150.809 0 0 0-4.231-2.147c-2.695-1.333-5.24-2.591-7.046-3.941a.79.79 0 0 1-.29-.807.76.76 0 0 1 .606-.589.75.75 0 0 1 .555.136c1.697 1.269 4.183 2.5 6.816 3.8 1.382.684 2.815 1.391 4.27 2.169a.76.76 0 0 1 .338.368.8.8 0 0 1-.217.932.731.731 0 0 1-.462.165Z"/>
  <path fill="#1B5EC9" d="M62.417 105.698a21.003 21.003 0 0 1-7.167-1.303c-2.64-.96-6.315-4.2-8.146-9.044-1.219-3.222-2.042-8.311.953-14.256 2.535-5.029 7.367-8.165 12.929-8.385 6.427-.25 12.504 3.337 16.282 9.607 1.746 2.91 2.198 6.795 1.237 10.662-1.131 4.546-3.968 8.413-7.788 10.604-2.456 1.406-5.303 2.115-8.3 2.115Zm-.791-31.444a14.5 14.5 0 0 0-.582.012c-5.023.195-9.383 3.023-11.665 7.554-2.732 5.423-1.99 10.04-.887 12.96 1.66 4.387 4.92 7.295 7.25 8.142 5.068 1.845 10.264 1.588 14.256-.705 3.46-1.987 6.034-5.496 7.062-9.63.859-3.453.472-6.895-1.058-9.44-3.367-5.607-8.706-8.893-14.376-8.893Z"/>
  <path fill="#1B5EC9" d="M61.1 105.696a.7.7 0 0 1-.457-.172c-1.438-1.232-4.25-5.617-5.717-11.12-1.278-4.8-1.872-11.779 2.586-17.769a.696.696 0 0 1 1.027-.123.824.824 0 0 1 .115 1.101c-4.071 5.476-3.511 11.918-2.325 16.363 1.412 5.296 4.144 9.403 5.226 10.328a.786.786 0 0 1 .247.395.833.833 0 0 1-.013.475.773.773 0 0 1-.267.38.698.698 0 0 1-.423.144v-.002Zm6.868-3.041a.71.71 0 0 1-.463-.176.767.767 0 0 1-.182-.236.827.827 0 0 1-.056-.599c1.255-4.498 3.234-19.263-3.887-27.647a.818.818 0 0 1-.18-.56.806.806 0 0 1 .236-.535.702.702 0 0 1 .52-.204.71.71 0 0 1 .502.245c7.614 8.963 5.62 24.08 4.209 29.139a.786.786 0 0 1-.26.412.695.695 0 0 1-.44.161Z"/>
  <path fill="#FF8D55" d="M59.698 86.679c-5.91 0-11.406-.46-15.059-1.026a.757.757 0 0 1-.63-.86.754.754 0 0 1 .865-.628c7.763 1.208 23.973 1.915 34.42-1.316a.753.753 0 0 1 .805.236.749.749 0 0 1-.096 1.06.755.755 0 0 1-.26.14c-5.747 1.775-13.176 2.394-20.045 2.394Zm-4.66 10.801c-3.18.009-6.35-.37-9.436-1.129a.756.756 0 0 1-.525-.903.753.753 0 0 1 .887-.556c9.412 2.325 17.905.466 25.135-1.458a.757.757 0 0 1 .946.825.75.75 0 0 1-.555.629C66.556 96.2 61.047 97.48 55.038 97.48Zm108.021-12.088c8.49-15.744 24.568-26.05 41.042-26.665 16.474-.615 38.68 8.278 49.514 45.823 5.084 17.608 5.213 36.703 3.085 55.049-.044.376-12.46-.358-12.122-1.505 3.6-12.134 5.358-41.576-9.595-68.742-5.989-10.88-19.654-19.753-31.105-19.345-11.45.408-23.082 9.76-30.192 19.766-6.357 8.95-9.362 20.338-10.68 31.657-.81 6.961-1.031 14-1.23 21.017-.098 3.528-.189 7.053-.349 10.578-.067 1.473-11.247 2.57-11.466.617-.344-3.058-.172-6.221-.076-9.295.108-3.48.314-6.954.622-10.422.618-6.951 1.098-27.289 12.552-48.533Z"/>
  <path fill="#fff" d="M158.113 110.712a.716.716 0 0 1-.603-.338.756.756 0 0 1-.1-.557 60.08 60.08 0 0 1 7.258-18.767.725.725 0 0 1 .446-.332.7.7 0 0 1 .543.09.74.74 0 0 1 .324.46.76.76 0 0 1-.088.56 58.62 58.62 0 0 0-7.077 18.299.741.741 0 0 1-.252.42.7.7 0 0 1-.451.165Zm-2.378 10.986a.713.713 0 0 1-.498-.206.746.746 0 0 1-.222-.503 18.693 18.693 0 0 1 .858-6.41.732.732 0 0 1 .36-.43.703.703 0 0 1 .793.1.743.743 0 0 1 .215.793 17.183 17.183 0 0 0-.788 5.884.795.795 0 0 1-.043.286.743.743 0 0 1-.373.418.7.7 0 0 1-.273.068h-.029Z"/>
  <path fill="#000" d="M46.79 129.301a.755.755 0 1 1-.07-1.507 932.54 932.54 0 0 1 74.508-4.096h.012a.75.75 0 0 1 .76.748.755.755 0 0 1-.749.759 930.917 930.917 0 0 0-74.387 4.088l-.073.008Zm9.894 4.395a.755.755 0 1 1-.115-1.507 155.865 155.865 0 0 1 16.548-1.652.752.752 0 0 1 .79.718.753.753 0 0 1-.72.789 154.168 154.168 0 0 0-16.503 1.652Z"/>
  <path fill="#3982F0" d="M136.401 159.121c2.539-7.568 11.947-7.944 15.158-8.219a212.17 212.17 0 0 1 17.785-.773c1.273 0 2.581.016 3.763.488 2.453.978 3.807 3.7 4.209 6.325.402 2.625.081 5.314.33 7.958.717 7.613 6.457 14.342 13.658 16.794 7.2 2.452 15.493.805 21.626-3.711 6.133-4.515 10.126-11.669 11.432-19.202.603-3.485 1.043-7.655 4.15-9.318 1.45-.778 3.173-.782 4.816-.759 8.44.152 16.859.721 25.255 1.708 2.123.251 4.307.551 6.143 1.65 3.871 2.319 5.012 7.349 5.636 11.84 2.571 18.511 2.498 37.684-3.005 55.537-5.503 17.854-16.851 34.32-33.037 43.492-22.277 12.624-51.83 9.367-72.186-6.196-20.356-15.562-29.981-41.98-30.134-67.711 0 0 0-16.786 4.401-29.903Z"/>
  <path fill="#fff" d="M141.363 199.698c1.89 0 .602-3.812.602-9.867 0-14.104 2.335-20.131 4.598-23.958 4.343-7.343-2.205-12.598-5.808-6.503-1.161 1.962-3.355 7.376-3.666 14.382-.48 10.799.997 25.946 4.274 25.946Z"/>
  <path fill="#000" d="M187 215.596c.01 4.239 3.496 8.23 7.851 8.987a129.827 129.827 0 0 0-.193 17.925c.037.623.104 1.305.566 1.746.612.58 1.607.475 2.455.331l4.442-.762c.713-.122 1.497-.289 1.912-.855.364-.495.333-1.152.286-1.755-.307-4.091-.614-8.18-.923-12.269-.087-1.145-.114-2.449.742-3.253.62-.583 1.545-.74 2.333-1.064 2.242-.925 3.461-3.277 4.056-5.548.67-2.562.744-5.393-.543-7.731-1.286-2.338-3.843-3.915-6.515-4.687-2.499-.719-6.248-1.479-8.776-.492-2.528.988-4.954 2.632-6.345 4.883a8.656 8.656 0 0 0-1.348 4.544Z"/>
  <path fill="#000" d="M196.754 245.736c-.632 0-1.334-.141-1.868-.674-.685-.682-.742-1.682-.774-2.279-.327-5.92-.278-11.854.147-17.765-4.305-1.119-7.594-5.292-7.603-9.779a9.9 9.9 0 0 1 1.407-5.029c1.306-2.214 3.63-4.097 6.544-5.303 2.61-1.079 6.364-.334 9.054.479 3.129.945 5.543 2.78 6.792 5.161 1.506 2.874 1.158 6.174.595 8.434-.544 2.187-1.744 5.031-4.378 6.178-.252.11-.508.199-.753.286-.506.177-.984.346-1.291.646-.598.592-.564 1.72-.498 2.731l.899 12.538c.043.61.111 1.532-.412 2.283-.608.869-1.693 1.064-2.346 1.181l-4.328.78a6.858 6.858 0 0 1-1.187.132Zm.995-39.859a6.72 6.72 0 0 0-2.568.433c-2.615 1.081-4.681 2.74-5.821 4.673a8.362 8.362 0 0 0-1.199 4.256c0 3.95 3.163 7.738 7.031 8.443a.738.738 0 0 1 .461.281.769.769 0 0 1 .155.52 138.935 138.935 0 0 0-.189 18.216c.031.515.079 1.038.332 1.289.331.329 1.059.252 1.727.131l4.327-.779c.565-.102 1.146-.23 1.378-.567.201-.285.188-.78.144-1.304l-.899-12.537c-.098-1.35-.111-2.875.941-3.918.546-.541 1.238-.782 1.849-.996.232-.081.45-.157.651-.246 2.07-.901 3.056-3.301 3.517-5.155.499-2.007.824-4.914-.465-7.371-1.432-2.725-4.308-3.937-5.896-4.418-1.62-.484-3.651-.951-5.476-.951Zm68.921-30.338a.757.757 0 0 1-.753-.756 70.682 70.682 0 0 0-.971-11.042c-.188-1.094-.389-2.152-.89-3.058-.743-1.351-2.248-2.426-4.126-2.952-1.778-.497-3.699-.51-5.558-.521a.753.753 0 0 1-.532-1.291.75.75 0 0 1 .532-.221c1.957.013 3.981.026 5.951.578 2.3.643 4.089 1.947 5.041 3.674.613 1.113.858 2.359 1.057 3.54a72.174 72.174 0 0 1 1.001 11.293.756.756 0 0 1-.752.756Zm.577 18.751a.75.75 0 0 1-.752-.756v-7.257a.75.75 0 0 1 1.285-.535.76.76 0 0 1 .22.535v7.257a.75.75 0 0 1-.753.756Zm-11.991 41.935a.756.756 0 0 1-.754-.756.76.76 0 0 1 .102-.378c6.773-11.99 10.16-21.467 11.311-31.692a.76.76 0 0 1 .281-.508.759.759 0 0 1 .557-.163.772.772 0 0 1 .508.282.774.774 0 0 1 .16.559c-1.182 10.442-4.62 20.092-11.5 32.268a.751.751 0 0 1-.665.388Zm-9.407 12.473a.755.755 0 0 1-.728-.951.737.737 0 0 1 .242-.383 34.24 34.24 0 0 0 4.879-5.103.744.744 0 0 1 .497-.272.74.74 0 0 1 .545.153.748.748 0 0 1 .285.493.75.75 0 0 1-.138.552 35.734 35.734 0 0 1-5.095 5.337.766.766 0 0 1-.487.174ZM198.25 192.13h-.025c-6.666-.21-13.349-3.171-18.333-8.127-4.704-4.664-7.903-11.063-9.043-18.02-.045-.27-.086-.542-.128-.816-.231-1.525-.451-2.965-1.14-4.197-.689-1.232-2.205-2.356-3.613-1.927a.748.748 0 0 1-.935-.503.757.757 0 0 1 .495-.943c2.185-.669 4.352.818 5.366 2.634.822 1.471 1.073 3.117 1.317 4.707.04.269.081.535.125.802 1.085 6.643 4.139 12.747 8.615 17.188 4.719 4.689 11.033 7.49 17.323 7.688a.756.756 0 0 1-.022 1.512l-.002.002Zm9.202-1.767a.745.745 0 0 1-.491-.183.763.763 0 0 1-.143-.977.751.751 0 0 1 .418-.32 26.097 26.097 0 0 0 10.819-6.469.747.747 0 0 1 .534-.217c.2 0 .39.081.531.223a.76.76 0 0 1-.006 1.069 27.636 27.636 0 0 1-11.443 6.842.779.779 0 0 1-.219.032Zm14.471-10.243a.752.752 0 0 1-.751-.726.79.79 0 0 1 .083-.374l1.675-3.283a.75.75 0 0 1 1.387.114c.06.19.043.398-.048.576l-1.674 3.283a.753.753 0 0 1-.672.41Z"/>
  <path fill="#1B5EC9" d="M75.686 93.698a.643.643 0 0 1-.425-.163.776.776 0 0 1-.242-.42.839.839 0 0 1 .045-.497.732.732 0 0 1 .312-.36l2.61-1.467a.638.638 0 0 1 .532-.059.68.68 0 0 1 .239.145c.07.066.127.147.169.237a.828.828 0 0 1-.101.852.693.693 0 0 1-.218.18l-2.611 1.47a.634.634 0 0 1-.31.082Z"/>
</svg>
