<svg xmlns="http://www.w3.org/2000/svg" width="299" height="299" fill="none" viewBox="0 0 299 299">
  <path fill="#F4F7FA" d="M32.723 119.54c-1.495 2.106-5.287 4.763-8.064 8.064-.17-.17-2.244 2.618-2.617 3.364-.674 1.348-.375 3.555.32 4.806 1.114 2.005 4.15 3.063 6.088 4.032 1.08.54 6.03.871 6.275 1.976.456 2.049-1.775 5.418-2.27 7.45-.586 2.414.126 4.602 1.095 6.756 1.596 3.547 4.178 6.081 6.008 9.425 4.01 7.328 8.05 15.977 9.506 24.192.831 4.69 1.507 7.307-.64 11.295-1.11 2.059-2.538 3.713-4.433 5.047-2.498 1.757-4.386 4.724-6.382 6.969-2.277 2.561-5.27 4.942-8.17 6.755-2.057 1.285-3.609 2.399-4.06 4.833-.57 3.081-1.511 11.063.935 13.645 2.538 2.679 6.671 4.497 9.613 6.729 2.173 1.649 4.7 3.93 7.476 2.296 1.576-.927 3.082-3.753 4.433-5.073 8.087-7.908 21.574-11.108 32.47-11.108 7.621 0 17.276 2.213 21.628 9.079 1.517 2.394 2.676 4.767 4.459 6.996l.072.09c1.258 1.574 4.283 5.357 6.336 5.357.499 0 1.974-.893 2.457-1.149 1.622-.858 3.287-.72 5.073-.72 7.558 0 13.667 1.171 20.747 3.845 2.506.946 6.54 2.18 8.305 4.352 1.376 1.694 2.405 3.641 3.578 5.474 1.125 1.757 1.976 2.298 3.978 2.777 3.051.729 6.234 2.472 9.026 3.845 6.437 3.167 12.845 7.021 19.705 9.132 3.898 1.199 7.198 2.296 11.322 2.296h11.08c7.636 0 14.895 0 21.229-4.699 4.185-3.105 6.568-7.852 8.758-12.39 2.425-5.022 2.834-8.717 8.625-10.761 4.739-1.672 8.063-2.371 12.043-5.687 2.155-1.796 7.209-5.845 7.209-8.999 0-1.379-1.418-3.051-1.922-4.299l-.069-.169c-1.908-4.716-3.834-9.479-5.112-14.41-1.33-5.135-1.068-10.343-1.068-15.594 0-7.991 1.017-16.08 2.671-23.898.641-3.03 1.433-7.231 3.684-9.532 1.619-1.655 3.903-2.371 5.928-3.365 2.973-1.458 3.943-2.951 5.234-5.901 1.241-2.838 2.758-5.378 4.299-8.117 1.592-2.832.441-7.703-.775-10.494-2.824-6.486-9.114-11.773-10.44-19.065-.373-2.05-2.787-2.885-4.352-4.219-8.758-7.46-14.017-19.663-19.226-29.586-10.558-20.111-3.632-8.678-12.71-24.725-2.197-3.885-5.449-7.406-8.918-10.2-1.882-1.516-3.849-2.96-4.78-5.288-1.842-4.605-.022-10.162-1.709-14.846-1.172-3.256-5.937-5.551-8.891-6.675-9.166-3.486-18.966-4.902-28.758-5.154-6.943-.178-14.934-.808-21.816.08-5.218.674-8.958 2.584-13.324 5.421-3.355 2.181-6.907 3.945-11.081 3.017-6.216-1.381-12.947-.634-19.279-1.602C105.728 30.02 101.391 29 93.5 29c-1.824 0-4.405 1.893-4.543 3.385-.574 6.197-1.796 12.902-4.38 18.584-1.995 4.39-9.298 7.261-13.778 5.982-2.811-.803-4.182-4.258-7.316-4.326-2.995-.065-5.75-.057-8.651.587-6.086 1.353-17.638 8.509-15.38 16.128.73 2.466 2.467 3.539 3.925 5.634 2.873 4.13 4.352 8.328 4.352 13.405 0 5.358.677 12.308-2.403 17.009-1.845 2.816-6.394 1.753-8.411 4.219-2.28 2.785-2.055 6.921-4.192 9.933Z"/>
  <path fill="#1B5EC9" d="M205.096 72.79s2.4 6.342 4.961 6.172c2.561-.169 16.056-1.277 18.275 2.07 2.22 3.345 6.149 3.033 9.285 1.992 4.087-1.357 9.271-4.973 12.749 2.76 3.478 7.732 7.165 3.583 9.565 4.641 2.4 1.059 2.102 2.869 2.102 2.869l-5.007 7.493-68.891-6.108 16.961-21.889Z"/>
  <path fill="#FBD2B5" d="M64.97 183.008c-.11-1.81.237-4.167 1.997-4.544 1.473-.313 2.714 1.085 3.516 2.369 5.784 9.266 7.545 20.438 9.183 31.257.26 1.719.508 3.549-.19 5.142-.474 1.088-1.345 1.952-2.274 2.674-1.837 1.432-5.212 3.596-7.668 2.756-1.066-.365-1.479-1.27-1.439-2.353.063-1.691.286-3.368.305-5.064.082-6.911-1.086-13.753-2.085-20.566-.58-3.87-1.105-7.757-1.345-11.671Zm176.899-.574c-.04-1.813-.58-4.134-2.365-4.361-1.494-.191-2.614 1.306-3.308 2.651-5.005 9.717-5.845 20.994-6.588 31.916-.117 1.736-.214 3.579.608 5.109.569 1.045 1.502 1.834 2.491 2.483 1.948 1.274 5.496 3.148 7.867 2.102 1.033-.453 1.371-1.391 1.242-2.465-.201-1.68-.569-3.331-.72-5.021-.647-6.876-.046-13.797.398-20.671.25-3.906.458-7.824.375-11.743Z"/>
  <path fill="#FF8D55" d="M199.591 72.79a69.033 69.033 0 0 1 6.787 7.586 4.022 4.022 0 0 0 2.032 1.4 4.07 4.07 0 0 0 2.478-.044c2.798-.965 5.753-1.426 8.184.067 2.067 1.272 3.16 3.678 5.107 5.127 2.974 2.214 7.206 1.686 10.669.34 3.615-1.406 6.971-3.593 10.837-4.14.251-.04.506-.035.757.011 1.59.314 1.58 2.046 1.847 3.396.767 3.904 2.799 5.913 6.763 6.568 1.534.254 7.187-1.07 6.988.085-5.602 26.815-14.913 52.072-24.053 77.031-6.044-1.899-12.19-3.479-18.388-4.808-6.23-1.329-12.51-2.425-18.813-3.363-6.303-.938-12.608-1.722-18.929-2.451-6.32-.729-12.656-1.405-18.984-2.119-2.775-.314-6.042-.274-8.654-1.33a4.645 4.645 0 0 1-2.01-1.466 4.57 4.57 0 0 1-.955-2.284c-.638-4.62 2.961-9.255 5.149-12.988a910.405 910.405 0 0 1 9.648-16.054 867.573 867.573 0 0 1 9.985-15.85 873.662 873.662 0 0 1 10.316-15.64 856.934 856.934 0 0 1 10.691-15.489c.22-.305 2.619-3.516 2.548-3.585Z"/>
  <path fill="#000" d="M243.779 122.627a.773.773 0 0 1-.373-.099.781.781 0 0 1-.275-.27.743.743 0 0 1-.11-.372.744.744 0 0 1 .083-.379 111.243 111.243 0 0 0 8.494-22.412.764.764 0 0 1 .918-.524c.19.05.355.172.458.342a.774.774 0 0 1 .095.566 112.844 112.844 0 0 1-8.614 22.727.766.766 0 0 1-.676.421Zm-4.492 10.635a.765.765 0 0 1-.724-.997c.072-.232.15-.491.233-.768.57-1.863 1.33-4.418 2.414-5.747a.745.745 0 0 1 .817-.273c.099.029.19.078.27.143a.783.783 0 0 1 .239.836.796.796 0 0 1-.15.266c-.888 1.099-1.638 3.582-2.134 5.224-.086.283-.165.546-.24.782a.762.762 0 0 1-.725.534Zm3.588-36.955h-.018a2.138 2.138 0 0 1-1.421-.524c-.705-.638-.879-1.835-.393-2.726a2.51 2.51 0 0 1 .937-.932 2.314 2.314 0 0 1 1.253-.294.648.648 0 0 1 .434.196 1.71 1.71 0 0 1 1.068.62c.208.243.36.536.442.854.082.319.092.653.029.976-.231 1.046-1.231 1.83-2.331 1.83Zm.046-3.03a1.027 1.027 0 0 0-.411.17 1.088 1.088 0 0 0-.311.33.813.813 0 0 0 .1.92.86.86 0 0 0 .568.186c.486.01.947-.324 1.037-.728a.677.677 0 0 0-.167-.552.389.389 0 0 0-.307-.161.625.625 0 0 1-.271-.027.655.655 0 0 1-.238-.139v.002Z"/>
  <path fill="#000" d="M244.095 92.948a.76.76 0 0 1-.666-.404.767.767 0 0 1-.09-.399.76.76 0 0 1 .123-.389 44.786 44.786 0 0 0 6.998-23.734c0-2.16-.189-4.851-1.829-6.5-1.05-1.058-2.504-1.472-3.541-1.631-3.378-.52-7.17.681-11.596 3.678-8.903 6.026-15.096 14.787-16.989 24.035a.777.777 0 0 1-.329.474.748.748 0 0 1-1.037-.22.785.785 0 0 1-.115-.568c1.975-9.643 8.4-18.754 17.632-25.003 4.753-3.218 8.89-4.5 12.661-3.919 1.805.28 3.32.991 4.379 2.06 2.037 2.052 2.287 5.14 2.27 7.6a46.364 46.364 0 0 1-7.245 24.571.753.753 0 0 1-.626.349Z"/>
  <path fill="#000" d="M249.301 90.708a.748.748 0 0 1-.707-.502.738.738 0 0 1 .033-.569c1.434-2.934 3.615-8.642 3.974-12.152.374-3.703-.187-6.61-1.685-8.639-1.774-2.42-5.181-3.781-8.679-3.483-2.927.25-6.029 1.554-9.22 3.884a33.19 33.19 0 0 0-10.968 13.803.748.748 0 0 1-.983.396.743.743 0 0 1-.397-.977 34.669 34.669 0 0 1 11.463-14.423c3.414-2.493 6.772-3.895 9.978-4.167 4.069-.346 7.906 1.22 10.016 4.096 1.718 2.337 2.377 5.585 1.957 9.67-.374 3.69-2.635 9.62-4.117 12.651a.756.756 0 0 1-.665.412Z"/>
  <path fill="#fff" d="M144.581 44.95a3.347 3.347 0 0 1 1.219-1.512 3.388 3.388 0 0 1 1.858-.59l16.877-.28c1.843-.03 3.721-.055 5.486.47 1.803.535 3.382 1.612 4.947 2.655a184.39 184.39 0 0 0 31.024 16.552 3.736 3.736 0 0 1 2.048 2.092 3.725 3.725 0 0 1-.097 2.916l-20.566 43.906c-6.162 13.144-12.323 26.313-17.568 39.849-2.634 6.797-5.039 13.704-6.603 20.821a2.7 2.7 0 0 1-.411.98c-.818 1.18-1.954.759-2.886.321-7.64-3.634-13.829-9.613-19.88-15.488-5.216-5.064-10.442-10.14-15.101-15.716-2.101-2.516-4.143-5.247-4.83-8.444-.688-3.198.049-6.53.798-9.723 1.308-5.64 2.674-11.271 4.044-16.895a1716.62 1716.62 0 0 1 4.25-17.013c.664-2.606 1.571-5.251 1.887-7.927.191-1.603.08-3.186.523-4.756.764-2.676 2.042-5.263 3.087-7.836l3.287-8.104 6.607-16.278Z"/>
  <path fill="#000" d="M161.43 174.697c-.781 0-1.503-.344-1.886-.525-7.892-3.746-14.165-9.831-20.24-15.715-5.184-5.022-10.546-10.216-15.272-15.858-2.036-2.433-4.273-5.32-5.03-8.819-.756-3.499.079-6.998.809-10.106a1448.408 1448.408 0 0 1 4.077-16.993c1.391-5.68 2.833-11.44 4.284-17.113.193-.738.401-1.487.603-2.212.522-1.857 1.059-3.777 1.282-5.659.063-.538.092-1.092.121-1.63.056-1.062.116-2.16.429-3.27.553-1.95 1.379-3.856 2.177-5.696.322-.743.655-1.514.963-2.263l9.971-24.515a4.133 4.133 0 0 1 1.507-1.864 4.192 4.192 0 0 1 2.296-.725l17.004-.286c1.806-.029 3.85-.063 5.763.503 1.854.551 3.465 1.611 5.005 2.637l.193.126a185.523 185.523 0 0 0 31.136 16.572 4.537 4.537 0 0 1 2.483 2.532 4.46 4.46 0 0 1 .304 1.776 4.458 4.458 0 0 1-.421 1.753l-20.731 44.151c-6.1 12.99-12.408 26.431-17.688 40.016-2.188 5.637-4.918 13.096-6.619 20.824-.092.45-.273.875-.531 1.257-.586.844-1.309 1.102-1.989 1.102Zm-17-130.092.714.284-9.971 24.515a108.42 108.42 0 0 1-.974 2.288c-.77 1.797-1.584 3.654-2.108 5.507-.269.954-.321 1.907-.385 2.938-.03.561-.061 1.144-.13 1.728-.235 2-.79 3.977-1.327 5.89-.192.717-.408 1.457-.593 2.177a1929.028 1929.028 0 0 0-4.282 17.1 1509.665 1509.665 0 0 0-4.073 16.97c-.693 2.956-1.479 6.306-.801 9.444.677 3.139 2.787 5.873 4.708 8.165 4.674 5.581 10.009 10.746 15.164 15.742 5.985 5.798 12.175 11.793 19.826 15.431 1.211.572 1.592.437 1.943-.068.144-.218.244-.462.296-.717 1.732-7.829 4.477-15.359 6.685-21.045 5.297-13.639 11.617-27.099 17.728-40.114l20.725-44.143c.169-.364.264-.758.277-1.158a2.978 2.978 0 0 0-1.842-2.846 186.876 186.876 0 0 1-31.396-16.711l-.193-.126c-1.453-.953-2.955-1.958-4.589-2.442-1.68-.5-3.518-.47-5.295-.44l-17.006.274a2.648 2.648 0 0 0-1.45.457 2.61 2.61 0 0 0-.951 1.177l-.7-.277Z"/>
  <path fill="#000" d="M187.043 67.571c-.134 0-.267 0-.402-.019-.709-.067-1.314-.38-1.85-.651a6.672 6.672 0 0 0-.864-.396c-7.955-2.727-15.379-7.599-22.551-12.318l-3.417-2.231a.766.766 0 0 1-.225-1.056.767.767 0 0 1 1.056-.225 908.08 908.08 0 0 1 3.428 2.238c7.1 4.662 14.441 9.48 22.214 12.144a8.35 8.35 0 0 1 1.066.482c.453.232.88.451 1.299.491.613.06 1.28-.11 1.927-.274l8.536-2.163a.76.76 0 0 1 .929.548.784.784 0 0 1 .018.298.8.8 0 0 1-.099.28.768.768 0 0 1-.467.351l-8.555 2.168a8.305 8.305 0 0 1-2.043.333ZM154.16 49.426a.743.743 0 0 1-.398-.114 124.76 124.76 0 0 0-3.32-1.974.75.75 0 0 1-.356-.464.763.763 0 0 1 1.118-.859 124.68 124.68 0 0 1 3.36 2 .767.767 0 0 1 .335.857.764.764 0 0 1-.735.554h-.004Zm2.645 91.675a.768.768 0 0 1-.543-.226.779.779 0 0 1-.219-.542c0-.1.021-.199.061-.291.972-2.285 1.558-4.05 2.303-6.284 1.283-3.854 3.047-9.141 8.037-20.948l17.249-40.844a.763.763 0 0 1 1.403.592l-17.245 40.843c-4.971 11.767-6.719 17.011-7.999 20.843-.762 2.262-1.35 4.05-2.346 6.394a.76.76 0 0 1-.701.463Z"/>
  <path fill="#1B5EC9" d="M148.306 65.538c.405-1.036.899-2.171 1.914-2.623 1.091-.491 2.346 0 3.445.498l18.183 8.219c.982.444 2.034.953 2.54 1.913.698 1.33.08 2.946-.546 4.312a484.146 484.146 0 0 1-20.449 39.7c-.237.412-.501.849-.932 1.042-.589.263-1.267-.017-1.849-.296l-19.59-9.32c1.197-2.319 2.68-4.607 3.3-7.151.683-2.77 1.926-5.412 2.961-8.066l7.082-18.108 1.988-5.103 1.011-2.588c.249-.651.942-1.737.942-2.43Z"/>
  <path fill="#000" d="M141.063 107.019c-.471.881.138 2.021 1.097 2.457.96.437 2.127.295 3.111-.09 1.198-.469 2.285-1.374 2.511-2.55a2.889 2.889 0 0 0-.541-2.196c-1.089-1.527-3.531-2.079-5.264-1.182-1.733.898-2.497 3.093-1.647 4.743l.733-1.182Z"/>
  <path fill="#fff" d="m148.283 78.045-5.79 17.028c-.19.53-.362 1.098-.219 1.64.191.716.883 1.162 1.526 1.535a142.035 142.035 0 0 0 7.859 4.245c.69.347 1.476.696 2.21.452.637-.214 1.049-.818 1.41-1.384a186.793 186.793 0 0 0 12.283-22.649c.305-.67.606-1.462.263-2.114-.225-.425-.673-.676-1.096-.903l-9.364-5.034c-1.604-.863-5.01-2.539-6.255-.353-.526.923-.809 2.059-1.204 3.05-.599 1.471-1.108 2.98-1.623 4.487Z"/>
  <path fill="#FACBDF" d="M35.634 109.361c-1.214-2.237-2.456-4.73-1.903-7.215.533-2.429 2.632-4.162 4.676-5.578 4.72-3.263 9.846-5.89 14.993-8.422a542.522 542.522 0 0 1 67.174-27.625c2.664-.89 5.621-1.755 8.199-.645 3.289 1.414 4.531 5.349 5.353 8.831 5.694 24.103 9.199 48.662 12.699 73.179.63 4.411 2.94 22.856 3.235 27.302.088 1.316-70.79 2.473-74.405 2.066-2.419-.272-3.937-1.817-5.283-3.73-2.4-3.413-4.567-7.016-6.797-10.544a824.775 824.775 0 0 1-13.543-22.194 843.775 843.775 0 0 1-12.847-22.606c-.519-.94-1.036-1.88-1.55-2.819Z"/>
  <path fill="#FF5400" d="M101.549 161.589c.911 1.731 1.9 3.541 3.571 4.585 1.672 1.045 4.246.952 5.291-.694 1.426-2.249-.801-4.936-2.604-6.903-1.984-2.166-3.631-4.607-5.212-7.071-14.15-22.005-23.803-46.474-33.052-70.877-.517.154-1.762.28-2.139.655-.41.407-.127.917.018 1.43a241.958 241.958 0 0 0 3.938 12.668 288.375 288.375 0 0 0 6.213 16.484 366.179 366.179 0 0 0 7.141 16.235 600.03 600.03 0 0 0 7.74 15.908c2.658 5.267 5.405 10.545 8.155 15.793.309.594.618 1.193.94 1.787Z"/>
  <path fill="#FF5400" d="M137.946 92.948a7.642 7.642 0 0 1 2.035 4.927 498.746 498.746 0 0 0-89.963 37.627c.35-.262-3.252-7.173-2.968-8.585.246-1.215 1.39-1.696 2.424-2.14a529.665 529.665 0 0 1 4.934-2.085 803.15 803.15 0 0 1 19.946-8.071 839.819 839.819 0 0 1 20.152-7.547 773.008 773.008 0 0 1 20.354-6.982 723.783 723.783 0 0 1 20.551-6.392 218.91 218.91 0 0 1 2.535-.752Z"/>
  <path fill="#FF5400" d="M60.696 106.24c-.41 0-.879.023-1.141.335-.263.311-.212.701-.164 1.071a26.401 26.401 0 0 0 5.559 12.985c.492.614 1.073 1.243 1.853 1.395.945.19 1.855-.38 2.654-.916 8.05-5.355 17.153-9.667 26.85-10.262l-10.842-15.08c-.739-1.029-2.028-2.18-3.098-1.492-.44.283-.652.8-.828 1.288a38.8 38.8 0 0 0-1.822 7.077c-.362 2.28-.117 4.711-.59 6.944-.562 2.651-2.392 1.064-4 .243a33.104 33.104 0 0 0-6.643-2.529 32.44 32.44 0 0 0-7.788-1.059Z"/>
  <path fill="#FF5400" d="M65.19 142.511c-.346 1.843-.5 4.042.862 5.309l4.987-5.526c.544-.605 1.13-1.237 1.907-1.454 1.397-.387 2.78.706 3.622 1.902.843 1.196 1.51 2.615 2.749 3.38a1.58 1.58 0 0 0 1.073.285c.283-.066.542-.211.748-.419 1.2-1.104 1.41-2.907 1.511-4.557a120.077 120.077 0 0 0-.53-20.66c-.232-2.066-.24-4.608-1.065-6.532-.763-1.789-1.852-1.22-2.782.046a174.903 174.903 0 0 0-3.275 4.639 62.082 62.082 0 0 0-9.808 23.587h.002Z"/>
  <path fill="#000" d="M235.821 144.461a.766.766 0 0 1-.751-.922c.228-1.091 2.149-7.881 3.081-10.402a.745.745 0 0 1 .393-.455.76.76 0 0 1 .602-.031.755.755 0 0 1 .439.412.78.78 0 0 1 .004.602c-.888 2.406-2.801 9.146-3.018 10.186a.768.768 0 0 1-.75.61Zm-21.665-53.239a2.467 2.467 0 0 1-2.364-1.64 2.456 2.456 0 0 1 .806-2.756 2.534 2.534 0 0 1 1.982-.573.768.768 0 0 1 .575.437 2.062 2.062 0 0 1 1.317 1.367 2.397 2.397 0 0 1-.318 2.032 2.439 2.439 0 0 1-1.998 1.133Zm-.17-3.43a1.087 1.087 0 0 0-.418.217.98.98 0 0 0-.384.686.956.956 0 0 0 .33.717.93.93 0 0 0 .719.275.91.91 0 0 0 .366-.146.905.905 0 0 0 .273-.286.93.93 0 0 0 .151-.353.938.938 0 0 0-.011-.385c-.068-.215-.244-.382-.37-.382a.77.77 0 0 1-.662-.344h.006Z"/>
  <path fill="#fff" d="M41.094 108.092c.702 1.072 2.303.401 2.138-.883-.165-1.232-.397-2.49-.192-3.685.369-2.091 2.033-3.66 3.764-4.772 1.875-1.203 3.971-2.092 5.482-3.794a1.324 1.324 0 0 0 .345-.963c-.061-.845-.91-1.041-1.602-1.047-3.732-.03-7.171 2.177-10.123 4.348-1.257.923-2.624 2.291-2.812 3.986-.154 1.393.645 2.681 1.29 3.829.554.985 1.098 1.982 1.685 2.947a.303.303 0 0 0 .025.034Z"/>
  <path fill="#1B5EC9" d="M64.237 166.718c6.915 24.014 11.969 56.852 20.74 72.039 1.2 2.085 1.373 4.694 2.987 6.476 3.135 3.454 8.477 3.511 13.155 3.308l104.242-4.52c2.604-.112 5.24-.229 7.736-.972 5.39-1.604 9.577-6.004 12.164-10.965 2.586-4.962 3.785-10.501 4.966-15.965l12.78-59.496c-6.349-.193-12.698-.354-19.047-.485s-12.7-.232-19.052-.305a2689.024 2689.024 0 0 0-38.188-.163c-6.351.017-12.702.051-19.054.102a4490.983 4490.983 0 0 0-38.11.457c-6.38.1-12.759.206-19.137.322-6.35.112-12.702.228-19.054.351-2.215.041-4.966-.294-7.076.568-2.224.91-1.576 3.235-1.147 5.096.308 1.405.701 2.778 1.095 4.152Z"/>
  <path fill="#000" d="M29.091 202.693c-1.257 0-2.43-.623-3.255-1.134a21.92 21.92 0 0 1-8.087-8.968c-.55-1.132-1.142-2.63-.892-4.205.334-2.072 1.95-3.479 3.577-4.743a280.76 280.76 0 0 1 28.585-19.516 272.107 272.107 0 0 1 4.784-2.786l.468-.274c1.02-.602 2.283-1.353 3.615-1.311 1.142.038 1.65.602 1.873 1.07 1.052 2.206-2.453 6.924-2.603 7.124L33.18 199.935c-.69.919-1.728 2.307-3.294 2.664a3.74 3.74 0 0 1-.796.094Zm-8.181-18.44.454.606c-1.385 1.076-2.759 2.256-3.006 3.779-.19 1.147.308 2.355.76 3.284a20.385 20.385 0 0 0 7.517 8.336c1.24.764 2.14 1.032 2.915.854.951-.214 1.68-1.11 2.415-2.091l23.975-31.984c1.267-1.694 2.854-4.693 2.447-5.544-.061-.124-.246-.191-.55-.202-.881-.027-1.894.573-2.79 1.099-.167.099-.33.191-.489.287a280.2 280.2 0 0 0-23.214 14.783 273.26 273.26 0 0 0-9.98 7.399l-.454-.606Zm248.612 13.073c-.141 0-.284-.012-.423-.035-1.01-.168-1.712-.906-2.283-1.586-3.425-4.062-6.214-8.648-8.914-13.084l-9.514-15.636c-.265-.436-.55-.87-.851-1.328-.972-1.484-1.977-3.017-2.417-4.764-.312-1.235-.624-3.486.783-4.667 1.655-1.388 3.965.101 5.346.99.172.111.331.214.472.3a97.618 97.618 0 0 1 6.141 4.081c7.112 5.117 14.112 11.516 21.396 19.565 1.661 1.833 3.479 4.274 2.797 6.882-.49 1.878-2.064 3.071-3.634 4.132a215.964 215.964 0 0 1-6.559 4.272c-.713.453-1.478.878-2.34.878Zm-10.309-15.499c2.663 4.397 5.43 8.923 8.775 12.895.417.493.864.981 1.364 1.065.501.084 1.106-.251 1.713-.631a225.503 225.503 0 0 0 6.515-4.241c1.332-.899 2.664-1.891 3.01-3.25.493-1.887-.951-3.823-2.451-5.467-7.211-7.967-14.131-14.297-21.157-19.351a95.056 95.056 0 0 0-6.043-4.014c-.152-.092-.321-.203-.506-.321-1.027-.662-2.749-1.772-3.547-1.103-.65.546-.571 1.97-.283 3.119.38 1.497 1.311 2.921 2.213 4.297.295.449.599.914.879 1.373l9.518 15.629Z"/>
  <path fill="#fff" d="M100.62 215.323a.764.764 0 0 1-.734-.567c-3.311-12.685-5.735-23.031-8.796-37.583a.772.772 0 0 1-.104-.272l-.27-1.511a.752.752 0 0 1 .607-.856.76.76 0 0 1 .882.57c3.225 15.468 5.713 26.113 9.151 39.278a.752.752 0 0 1-.277.793.752.752 0 0 1-.267.129.732.732 0 0 1-.192.019Zm28.155-13.039a.754.754 0 0 1-.758-.68l-2.615-25.914c-.129-1.287-.277-2.745-.975-3.849a.748.748 0 0 1 .004-.855.745.745 0 0 1 .501-.314.75.75 0 0 1 .575.138c.082.06.15.138.202.225.889 1.403 1.056 3.051 1.202 4.504l2.619 25.912a.758.758 0 0 1-.679.83l-.076.003Zm1.116 11.533a.753.753 0 0 1-.759-.661l-.628-4.95a.772.772 0 0 1 .021-.295.769.769 0 0 1 .356-.457.777.777 0 0 1 .577-.072.762.762 0 0 1 .552.635l.628 4.952a.768.768 0 0 1-.021.294.771.771 0 0 1-.356.458.775.775 0 0 1-.281.092l-.089.004Zm28.823 2.63a.76.76 0 0 1-.759-.756l.23-41.225a.757.757 0 0 1 1.295-.535.756.756 0 0 1 .222.535l-.222 41.22c0 .1-.019.2-.057.292a.734.734 0 0 1-.167.248.781.781 0 0 1-.542.221Zm.04 10.883a.758.758 0 0 1-.759-.756v-2.968a.756.756 0 0 1 .759-.756.757.757 0 0 1 .758.756v2.968a.754.754 0 0 1-.758.756Zm29.706-30.381a.753.753 0 0 1-.751-.871 434.838 434.838 0 0 1 4.91-26.362.75.75 0 0 1 .33-.476.777.777 0 0 1 .844.015.76.76 0 0 1 .315.487.77.77 0 0 1-.006.295 436.03 436.03 0 0 0-4.894 26.262.764.764 0 0 1-.748.65Zm25.231 13.888a.808.808 0 0 1-.447-.141.773.773 0 0 1-.203-.216.734.734 0 0 1-.104-.277.715.715 0 0 1 .009-.295 371.85 371.85 0 0 0 7.273-40.149.725.725 0 0 1 .093-.279.732.732 0 0 1 .195-.223.737.737 0 0 1 .264-.132.74.74 0 0 1 .296-.021.732.732 0 0 1 .504.287.743.743 0 0 1 .154.557 373.108 373.108 0 0 1-7.296 40.313.758.758 0 0 1-.738.576Z"/>
  <path fill="#FBD2B5" d="M67.264 208.873c-2.932 1.916-5.92 4.002-7.688 7.027-1.77 3.025-1.967 7.257.473 9.771 1.63 1.678 4.28 2.525 5.036 4.737.345 1.008.209 2.108.247 3.167.142 3.876 2.9 7.521 6.59 8.711.512.165 1.082.316 1.392.766.31.45.26 1.046.251 1.596-.065 4.339 4.511 8.107 8.76 7.209-.483 3.295 2.683 6.224 5.979 6.719 3.296.494 6.577-.767 9.653-2.037 10.731-4.456 19.711-11.724 28.906-18.839 5.226-4.045 3.302-9.478-2.635-6.301l-18.058 9.567c-2.648 1.149-5.454 2.299-8.279 2.619-1.452.163-2.211-1.682-1.048-2.569 8.84-6.742 19.476-10.935 28.811-17.066 6.099-4.006 3.94-7.471 2.755-8.352-1.318-.989-3.53-.667-5.101-.169-10.486 3.326-20.888 10.487-30.355 14.964-3.984 1.883-8.195.335-5.77-2.424 11.768-7.674 16.864-11.429 28.636-19.102 1.813-1.182 4.73-3.804 2.974-7.147-1.989-3.786-5.519-2.299-11.918 1.463-8.982 5.282-14.426 8.926-23.7 13.683-4.855 2.49-7.784.737-2.77-3.054 6.525-4.939 11.915-9.106 19.096-13.33 2.746-1.617 7.999-3.917 7.374-7.958-.191-1.237-1.613-4.896-7.282-2.439-7.184 3.121-14.227 7.878-21.003 11.807a245.908 245.908 0 0 0-11.326 6.981Z"/>
  <path fill="#000" d="M69.473 228.308a.785.785 0 0 1-.334-.076.779.779 0 0 1-.267-.215 10.715 10.715 0 0 1-1.635-2.939.758.758 0 0 1 .202-.822.77.77 0 0 1 .549-.198.761.761 0 0 1 .683.5 9.146 9.146 0 0 0 1.402 2.519.756.756 0 0 1 .086.803.758.758 0 0 1-.686.428Zm9.48 13.217a.77.77 0 0 1-.552-.236 10.648 10.648 0 0 1-1.742-2.418.759.759 0 0 1 .323-1.027.764.764 0 0 1 1.03.322 9.021 9.021 0 0 0 1.492 2.071.76.76 0 0 1-.551 1.288Zm8.992 9.321a.762.762 0 0 1-.457-.152 9.574 9.574 0 0 1-1.908-1.902.767.767 0 0 1-.158-.569.753.753 0 0 1 .298-.51.748.748 0 0 1 .574-.144.755.755 0 0 1 .505.308 8.008 8.008 0 0 0 1.597 1.592.759.759 0 0 1-.013 1.227.77.77 0 0 1-.447.143l.01.007Zm13.187-53.533a4.938 4.938 0 0 1-1.973-.367 3.346 3.346 0 0 1-1.791-1.927 2.408 2.408 0 0 1 .131-1.967.742.742 0 0 1 .186-.247.741.741 0 0 1 .269-.153.77.77 0 0 1 .84.255.778.778 0 0 1 .15.586.753.753 0 0 1-.11.289.919.919 0 0 0-.028.742 1.827 1.827 0 0 0 .954 1.026c.841.363 1.837.255 3.052.078a.783.783 0 0 1 .567.142.769.769 0 0 1 .299.501.75.75 0 0 1-.364.764.757.757 0 0 1-.28.099c-.629.105-1.265.166-1.902.179Zm12.915 10.351h-.052c-1.22-.082-2.266-.56-2.941-1.343-.851-.984-.992-2.424-.338-3.425a.76.76 0 0 1 .483-.351.764.764 0 0 1 .589.102.78.78 0 0 1 .333.497.746.746 0 0 1-.127.582c-.282.432-.191 1.141.216 1.602.406.46 1.091.761 1.888.818a.766.766 0 0 1 .738.785.756.756 0 0 1-.242.531.756.756 0 0 1-.547.205v-.003Zm9.468 15.857a.753.753 0 0 1-.345-.083c-1.145-.58-1.976-1.456-2.348-2.473-.466-1.271-.126-2.717.828-3.514a.77.77 0 0 1 .557-.175.765.765 0 0 1 .694.826.763.763 0 0 1-.271.517c-.456.381-.616 1.164-.381 1.823.234.658.808 1.23 1.606 1.636a.762.762 0 0 1 .127 1.278.774.774 0 0 1-.474.162l.007.003Zm2.083 12.487a2.477 2.477 0 0 1-1.648-.65 2.447 2.447 0 0 1-.849-1.83.766.766 0 0 1 .228-.537.751.751 0 0 1 .249-.161.758.758 0 0 1 .584.003.774.774 0 0 1 .41.417c.037.091.056.19.055.291.021.263.142.506.339.681.197.175.455.268.718.259a.766.766 0 0 1 .853.66.76.76 0 0 1-.662.85 2.135 2.135 0 0 1-.277.017Z"/>
  <path fill="#FBD2B5" d="M240.836 208.872c2.886 1.916 5.825 4.002 7.568 7.027 1.743 3.025 1.936 7.257-.468 9.771-1.603 1.678-4.21 2.525-4.955 4.737-.34 1.008-.206 2.108-.244 3.167-.139 3.876-2.854 7.522-6.487 8.711-.504.165-1.066.317-1.369.767-.304.45-.257 1.046-.248 1.596.065 4.339-4.44 8.107-8.622 7.209.475 3.295-2.641 6.224-5.888 6.719-3.246.494-6.472-.767-9.5-2.037-10.564-4.456-19.403-11.725-28.454-18.84-5.145-4.044-3.251-9.478 2.593-6.301l17.776 9.567c2.607 1.15 5.369 2.299 8.147 2.619 1.432.163 2.177-1.682 1.034-2.569-8.702-6.734-19.171-10.933-28.36-17.064-6.004-4.006-3.878-7.471-2.713-8.353 1.298-.988 3.475-.666 5.022-.168 10.322 3.325 20.562 10.487 29.881 14.964 3.921 1.883 8.066.335 5.68-2.423-11.585-7.675-16.601-11.43-28.189-19.103-1.786-1.182-4.656-3.805-2.928-7.148 1.958-3.785 5.433-2.299 11.73 1.464 8.843 5.282 14.203 8.926 23.331 13.683 4.78 2.49 7.661.737 2.728-3.054-6.423-4.939-11.73-9.106-18.798-13.33-2.703-1.617-7.874-3.918-7.261-7.959.189-1.237 1.59-4.897 7.168-2.439 7.072 3.121 14.003 7.878 20.675 11.808a238.417 238.417 0 0 1 11.151 6.979Z"/>
  <path fill="#000" d="M238.271 228.173a.757.757 0 0 1-.684-.43.77.77 0 0 1 .086-.808 9.261 9.261 0 0 0 1.4-2.534.768.768 0 0 1 .682-.503c.101-.004.2.012.293.044a.788.788 0 0 1 .256.155.78.78 0 0 1 .246.532c.005.1-.01.201-.044.295a10.828 10.828 0 0 1-1.633 2.956.79.79 0 0 1-.267.217.79.79 0 0 1-.335.076Zm-9.464 13.296a.754.754 0 0 1-.701-.465.755.755 0 0 1-.05-.438.776.776 0 0 1 .2-.392 9.115 9.115 0 0 0 1.49-2.084.763.763 0 0 1 1.029-.324.768.768 0 0 1 .322 1.034 10.78 10.78 0 0 1-1.74 2.432.765.765 0 0 1-.55.237Zm-8.983 9.377a.748.748 0 0 1-.446-.145.777.777 0 0 1-.278-.379.764.764 0 0 1 .267-.853 8.097 8.097 0 0 0 1.595-1.602.757.757 0 0 1 1.35.358.762.762 0 0 1-.133.562 9.493 9.493 0 0 1-1.905 1.914.76.76 0 0 1-.45.145Zm-13.172-53.852a13.364 13.364 0 0 1-1.905-.18.762.762 0 0 1-.28-.102.75.75 0 0 1-.348-.47.793.793 0 0 1-.016-.299.751.751 0 0 1 .301-.501.734.734 0 0 1 .269-.128.744.744 0 0 1 .297-.016c1.21.178 2.204.287 3.048-.078.219-.1.416-.243.58-.419.163-.178.289-.387.373-.613a.931.931 0 0 0 .065-.377.945.945 0 0 0-.094-.369.772.772 0 0 1-.095-.601.782.782 0 0 1 .372-.48.75.75 0 0 1 .295-.09.736.736 0 0 1 .309.034.74.74 0 0 1 .268.153.775.775 0 0 1 .185.249 2.433 2.433 0 0 1 .131 1.979 3.373 3.373 0 0 1-1.79 1.938 4.905 4.905 0 0 1-1.965.37Zm-12.891 10.412a.77.77 0 0 1-.789-.741.765.765 0 0 1 .737-.79c.797-.053 1.484-.354 1.886-.825.402-.47.498-1.175.216-1.609a.761.761 0 0 1-.088-.565.762.762 0 0 1 1.364-.269c.653 1.006.511 2.455-.337 3.444-.676.789-1.715 1.269-2.938 1.351l-.051.004Zm-9.455 15.952a.777.777 0 0 1-.475-.162.77.77 0 0 1 .128-1.286c.796-.408 1.366-.991 1.604-1.646.238-.654.082-1.451-.381-1.833a.771.771 0 0 1-.095-1.08.767.767 0 0 1 .516-.271.765.765 0 0 1 .558.176c.953.802 1.292 2.254.827 3.534-.381 1.02-1.204 1.901-2.345 2.488a.736.736 0 0 1-.337.08Zm-2.08 12.562c-.092 0-.183-.006-.273-.017a.764.764 0 0 1-.661-.856.773.773 0 0 1 .288-.509.768.768 0 0 1 .564-.155c.262.01.52-.084.716-.26a1.03 1.03 0 0 0 .339-.685.727.727 0 0 1 .055-.293.82.82 0 0 1 .162-.251.797.797 0 0 1 .246-.168.815.815 0 0 1 .291-.061.781.781 0 0 1 .541.22.768.768 0 0 1 .229.539 2.475 2.475 0 0 1-.848 1.841 2.487 2.487 0 0 1-1.649.655ZM65.025 166.876a60.009 60.009 0 0 1-7.449-.423c-1.214-.151-2.907-.52-3.57-1.961-.494-1.076-.149-2.283.059-3.006.19-.672.392-1.355.598-2.031.143-.472.28-1.001.427-1.559.82-3.148 1.947-7.464 5.957-7.758 1.715-.129 3.484-.041 5.191.045.938.046 1.905.096 2.84.106 2.723.028 5.602.015 8.556-.039 5.118-.095 10.562-.31 17.135-.677 4.833-.27 9.748-.595 14.501-.907l2.656-.176c5.401-.352 11.164-.722 17.014-1.001 18.249-.871 36.81-.813 54.76-.765l56.804.172c1.189 0 2.535 0 3.81.427 4.334 1.435 5.692 6.573 6.393 10.886.138.846.393 2.421-.533 3.518-.703.83-1.764 1.041-2.701 1.173-7.811 1.098-15.824.781-23.568.472l-1.936-.076c-44.32-1.709-89.415.461-133.022 2.559-5.308.254-10.615.51-15.923.765-2.636.132-5.311.256-8 .256Zm-9.49-4.96c-.201.701-.38 1.428-.14 1.941.262.574 1.017.916 2.375 1.085 5.056.631 10.204.382 15.182.157a6553.31 6553.31 0 0 0 15.92-.766c43.64-2.105 88.778-4.269 133.154-2.558l1.936.074c7.677.306 15.622.622 23.297-.457.69-.098 1.395-.228 1.751-.649.434-.515.328-1.447.191-2.279-.633-3.889-1.814-8.503-5.369-9.679-1.036-.345-2.202-.347-3.33-.351l-56.808-.16c-17.93-.054-36.471-.111-54.676.765-5.839.279-11.592.647-16.987 1.001l-2.656.174c-4.763.314-9.674.637-14.517.909-6.591.367-12.053.574-17.19.679-2.97.054-5.863.067-8.6.039-.963-.01-1.948-.06-2.9-.107-1.66-.083-3.376-.169-5.003-.048-2.926.216-3.81 3.618-4.595 6.619-.15.574-.291 1.116-.444 1.617-.202.668-.4 1.34-.59 2.008v-.014Z"/>
  <path fill="#fff" d="M79.454 116.916c-.462 0-.917-.105-1.327-.307a2.844 2.844 0 0 1-1.03-.854 7.138 7.138 0 0 1-.783-1.317l-.087-.173c-.437-.864-.837-1.886-.508-2.905.137-.384.36-.734.656-1.026a2.915 2.915 0 0 1 1.053-.663.836.836 0 0 1 .867.171.77.77 0 0 1 .17.248.722.722 0 0 1-.004.581.793.793 0 0 1-.435.407 1.33 1.33 0 0 0-.476.283c-.135.126-.24.277-.31.445-.167.518.122 1.202.425 1.803l.09.178c.166.37.371.722.611 1.053.188.233.753.948 2.172.28a2.757 2.757 0 0 0 1.155-.897 1.488 1.488 0 0 0 .114-1.26c-.23-.736-.873-1.379-1.761-1.766a.786.786 0 0 1-.432-.423.724.724 0 0 1 .017-.589.793.793 0 0 1 .456-.4.85.85 0 0 1 .312-.044.85.85 0 0 1 .306.076c1.311.569 2.27 1.557 2.63 2.713a2.91 2.91 0 0 1-.297 2.507 4.27 4.27 0 0 1-1.793 1.445 4.242 4.242 0 0 1-1.791.434Zm-4.006 14.106a.799.799 0 0 1-.662-.336.73.73 0 0 1-.121-.568c.1-.485.16-.978.219-1.502.042-.354.086-.724.143-1.09.27-1.689.837-3.303 1.395-4.863a42.958 42.958 0 0 1 1.9-4.757.782.782 0 0 1 .453-.391.834.834 0 0 1 .61.028.774.774 0 0 1 .41.431.725.725 0 0 1-.03.58c-.73 1.469-1.29 3.056-1.833 4.592-.528 1.498-1.076 3.047-1.323 4.606-.054.337-.091.677-.135 1.033a18.27 18.27 0 0 1-.24 1.625.753.753 0 0 1-.277.441.822.822 0 0 1-.51.171Zm-2.98-7.976a.833.833 0 0 1-.335-.07.779.779 0 0 1-.414-.427.724.724 0 0 1 .025-.58 17.834 17.834 0 0 1 3.616-4.987.816.816 0 0 1 .867-.173.797.797 0 0 1 .436.406.732.732 0 0 1-.163.829 16.33 16.33 0 0 0-3.31 4.562.773.773 0 0 1-.293.32.827.827 0 0 1-.43.12Zm16.509-8.301a21.144 21.144 0 0 1-3.128-.298 36.772 36.772 0 0 0-1.136-.155.84.84 0 0 1-.303-.087.75.75 0 0 1-.39-.458.727.727 0 0 1 .073-.587.778.778 0 0 1 .493-.358.842.842 0 0 1 .317-.016c.382.044.774.103 1.195.163 1.793.264 3.837.569 5.7-.258.385-.166.73-.405 1.015-.703a2.95 2.95 0 0 0 .644-1.026 2.728 2.728 0 0 0-.277-2.309.728.728 0 0 1-.088-.575.761.761 0 0 1 .364-.465.829.829 0 0 1 .604-.084c.205.049.38.174.489.347a4.198 4.198 0 0 1 .424 3.553 4.425 4.425 0 0 1-.964 1.568 4.685 4.685 0 0 1-1.542 1.071 8.537 8.537 0 0 1-3.49.677Z"/>
  <path fill="#000" d="M66.835 209.412a.795.795 0 0 1-.428-.124.725.725 0 0 1-.281-.329.685.685 0 0 1-.037-.422.71.71 0 0 1 .22-.37 16.328 16.328 0 0 1 2.702-1.865c.324-.193 1.019-.557 1.82-.981.953-.502 2.023-1.068 2.622-1.42a.805.805 0 0 1 .847.027.74.74 0 0 1 .204.206.699.699 0 0 1 .094.544.701.701 0 0 1-.123.257.766.766 0 0 1-.217.193c-.63.36-1.717.945-2.684 1.452-.751.397-1.462.772-1.756.947a15.067 15.067 0 0 0-2.46 1.683.788.788 0 0 1-.523.202Zm172.05-1.645a.797.797 0 0 1-.406-.112l-6.08-3.63a.716.716 0 0 1-.337-.451.687.687 0 0 1 .099-.544.76.76 0 0 1 .477-.32.8.8 0 0 1 .575.094l6.08 3.631c.14.083.247.208.306.354a.687.687 0 0 1 .019.456.716.716 0 0 1-.275.377.789.789 0 0 1-.458.145Z"/>
  <path fill="#fff" d="M212.138 109.896c.642.471 1.206.535 1.975.535.208 0 1.105-.27 1.285-.374.194-.112.423.005.617-.107.348-.201 1.102-.054 1.49-.054 1.362 0 2.703.384 3.804 1.26.519.414 1.089.769 1.239 1.468.084.397.302.707.302 1.147v1.153c0 .997-.265 1.791-.565 2.728-.18.561-.567 1.712-1.233 1.866-.453.105-1.091-.249-1.491-.446-.712-.351-2.014-.353-2.764-.137-1.729.5-2.478 2.493-2.478 4.202 0 .781-.194 1.478.52 1.896.571.334 1.213.739 1.661 1.206.216.224.554.359.743.612.162.218-.272.515-.394.642-.608.632-1.209 1.332-1.856 1.973-.733.727-1.586.327-2.524.327-.481 0-1.05.097-1.491-.107-.611-.283-1.112-.749-1.696-1.07-.552-.303-1.305-.516-1.798-.915-.53-.428-1.361-.658-2.028-.689-.735-.035-1.386-.368-2.084-.529-1.616-.374-1.568-2.367-1.593-3.75-.036-1.982-.206-3.962-.206-5.955 0-.81.227-1.708.411-2.496.179-.766.347-1.601.64-2.329.711-1.764 1.998-4.41 4.14-4.41.414 0 .968-.098 1.365.024.699.215 1.38.517 2.078.725.729.217 1.329 1.164 1.931 1.604Zm2.756-3.776c-.464.638-1.002 1.721-1.002 2.505.506-.234.988-.555 1.504-.794.811-.375 1.575-.749 2.428-1.062 1.075-.393 2.312-.544 3.431-.794.475-.106.95-.283 1.437-.319.251-.019.132-1.064.117-1.238-.067-.776-.902-.709-1.376-1.103-.792-.66-2.128-.019-2.941.253-1.589.531-2.66 1.262-3.598 2.552Z"/>
</svg>
