<?xml version="1.0" encoding="UTF-8"?>
<svg version="1.1" xmlns="http://www.w3.org/2000/svg" width="960" height="960">
<path d="M0 0 C316.8 0 633.6 0 960 0 C960 316.8 960 633.6 960 960 C643.2 960 326.4 960 0 960 C0 643.2 0 326.4 0 0 Z " fill="#FEFEFE" transform="translate(0,0)"/>
<path d="M0 0 C2.46072035 -0.00435441 4.92143935 -0.00953998 7.38215637 -0.01548767 C13.34086182 -0.02743267 19.29952541 -0.03003827 25.25823827 -0.02768741 C30.10991695 -0.02589461 34.96158206 -0.02767435 39.81325912 -0.03191185 C40.85436542 -0.03280463 40.85436542 -0.03280463 41.91650417 -0.03371545 C43.3271618 -0.03492738 44.73781943 -0.03614152 46.14847706 -0.03735783 C59.3414789 -0.04820336 72.53445509 -0.04608547 85.72745834 -0.03997298 C97.74978926 -0.03481015 109.77203899 -0.04604787 121.79435386 -0.0650712 C134.18778377 -0.08452882 146.58117544 -0.09269156 158.9746207 -0.08894795 C165.91288799 -0.0870474 172.85108629 -0.08941008 179.78934097 -0.10366249 C186.3213791 -0.11694641 192.85329638 -0.11420961 199.38533592 -0.1012516 C201.76633829 -0.09890613 204.14735233 -0.10154649 206.52834129 -0.10987473 C264.00909602 -0.29624356 315.45618947 21.55690353 358.40576172 59.2746582 C359.15083984 59.90887695 359.89591797 60.5430957 360.66357422 61.1965332 C362.60776875 62.85862892 364.51211071 64.55531816 366.40576172 66.2746582 C367.06318359 66.85473633 367.72060547 67.43481445 368.39794922 68.0324707 C381.269992 80.05580737 391.14629936 95.82360869 399.40576172 111.2746582 C399.75300293 111.91983398 400.10024414 112.56500977 400.45800781 113.22973633 C409.36118519 130.09175025 415.2341178 148.76897404 419.34326172 167.3371582 C419.53041748 168.17843262 419.71757324 169.01970703 419.91040039 169.88647461 C423.38040049 186.80373805 423.70485363 203.70113602 423.69628906 220.90234375 C423.70228679 223.33070581 423.70909515 225.75906598 423.71664429 228.18742371 C423.73236925 234.0561492 423.738747 239.92482585 423.73986904 245.79357138 C423.7408264 250.57317473 423.74497055 255.35276505 423.75127029 260.13236427 C423.76884051 273.74389607 423.77811553 287.35539661 423.77660935 300.96693983 C423.77648948 302.06273332 423.77648948 302.06273332 423.77636719 303.18066406 C423.77628543 303.91210559 423.77620366 304.64354711 423.77611943 305.39715353 C423.77530721 317.24013543 423.7944397 329.08298996 423.82264392 340.92593505 C423.85151075 353.14544904 423.86517675 365.36490118 423.86345637 377.58445007 C423.86279732 384.42104193 423.86807426 391.25750015 423.88981247 398.0940609 C423.90935467 404.53016422 423.90921122 410.9659876 423.89477921 417.40210152 C423.89270981 419.74518118 423.89727827 422.08827912 423.90950012 424.43132782 C424.00380883 443.78612038 421.97203624 462.57158699 416.28076172 481.1496582 C415.98927246 482.12104736 415.6977832 483.09243652 415.39746094 484.09326172 C404.48739019 519.34096574 386.51571948 550.94161949 361.43310547 578.05200195 C360.17887656 579.42706217 358.95521359 580.83160084 357.78466797 582.27856445 C340.08425556 604.12820071 310.47627746 618.16493187 284.63476562 627.46264648 C282.83256366 628.11917701 281.04438918 628.81413378 279.26123047 629.52075195 C259.47526534 637.33180116 236.11508755 640.41688655 214.97695923 640.42855835 C213.98755164 640.4329406 212.99814404 640.43732286 211.9787544 640.44183791 C208.69481853 640.45509028 205.41090939 640.46137406 202.12695312 640.4675293 C199.75862003 640.47544138 197.3902881 640.48371099 195.0219574 640.49230957 C187.93698602 640.51616035 180.85201395 640.53144277 173.76701504 640.54436964 C171.75897638 640.54809264 169.75093838 640.55206494 167.74290037 640.5561223 C155.2195305 640.58137652 142.69615923 640.60338595 130.17276955 640.61585045 C127.27973044 640.61877918 124.38669137 640.62174098 121.49365234 640.62475586 C120.77477924 640.62550191 120.05590614 640.62624796 119.31524901 640.62701662 C107.71188283 640.63962673 96.10867138 640.67279896 84.50537725 640.71455769 C72.53692675 640.75726998 60.56855478 640.78057911 48.6000284 640.78577101 C41.90280711 640.78915289 35.20587966 640.80110884 28.50871658 640.83387375 C-25.91799743 641.08702966 -25.91799743 641.08702966 -48.59423828 635.2746582 C-49.68991497 634.99668774 -50.78559166 634.71871727 -51.91447067 634.43232346 C-65.66652482 630.8829729 -78.71541644 626.24822791 -91.59423828 620.2746582 C-92.38717285 619.9156543 -93.18010742 619.55665039 -93.99707031 619.18676758 C-108.23353113 612.69264405 -120.93450499 604.4339688 -133.59423828 595.2746582 C-134.26632324 594.78932617 -134.9384082 594.30399414 -135.63085938 593.80395508 C-180.6040984 561.01272899 -205.29981247 513.75466231 -214.79736328 459.6262207 C-216.91108728 446.00124972 -216.74915334 432.38310561 -216.75537109 418.63183594 C-216.76000586 416.23727849 -216.76503139 413.84272177 -216.77041626 411.44816589 C-216.78347819 404.96846986 -216.79001083 398.48878073 -216.79442692 392.00907397 C-216.79720313 387.95244452 -216.80144284 383.8958174 -216.80593109 379.83918953 C-216.8181118 368.57621505 -216.82841409 357.31324242 -216.83180618 346.0502615 C-216.83202575 345.33143026 -216.83224532 344.61259902 -216.83247153 343.87198502 C-216.83279895 342.79137561 -216.83279895 342.79137561 -216.83313298 341.6889357 C-216.83357643 340.22947276 -216.83402299 338.77000981 -216.83447266 337.31054688 C-216.83469409 336.58662556 -216.83491552 335.86270424 -216.83514366 335.11684591 C-216.83908746 323.40013676 -216.85653411 311.68348995 -216.87983218 299.96680485 C-216.90363662 287.8966683 -216.91601211 275.82656293 -216.9171741 263.75640255 C-216.91808567 256.99588144 -216.92370607 250.23544165 -216.94199371 243.47494316 C-216.95857796 237.10956187 -216.96058 230.74433399 -216.95185471 224.37893867 C-216.95108987 222.05675976 -216.955353 219.73457223 -216.96531296 217.41241455 C-217.02058455 203.71076812 -216.19294117 190.73562705 -213.59423828 177.2746582 C-213.27463594 175.48179487 -212.95542717 173.68886113 -212.63720703 171.89575195 C-206.45495641 140.73820826 -192.47073314 110.75444351 -173.59423828 85.2746582 C-172.9701709 84.42532715 -172.9701709 84.42532715 -172.33349609 83.55883789 C-145.92000565 47.80322473 -112.35610769 22.57147917 -69.59423828 9.2746582 C-68.40830078 8.89825195 -67.22236328 8.5218457 -66.00048828 8.1340332 C-57.32327431 5.51523439 -48.54036012 3.68306261 -39.59423828 2.2746582 C-38.65261904 2.1105586 -37.71099979 1.94645899 -36.74084663 1.77738667 C-24.51663783 -0.13431668 -12.34777998 -0.01450851 0 0 Z " fill="#8C67F8" transform="translate(355.59423828125,140.725341796875)"/>
<path d="M0 0 C1.31053848 -0.0049649 2.62107697 -0.00992981 3.97132874 -0.01504517 C7.53575427 -0.02804116 11.1001611 -0.03458872 14.66460657 -0.03905582 C16.90155816 -0.04200726 19.13850486 -0.04611571 21.37545395 -0.05056 C28.40365036 -0.06420087 35.43183532 -0.07388428 42.46004403 -0.07776189 C50.5189098 -0.08223518 58.57760534 -0.09976357 66.63641942 -0.12876248 C72.90267587 -0.15051321 79.1688849 -0.16047324 85.43517864 -0.16180301 C89.1607827 -0.16284146 92.88622605 -0.16854097 96.6117897 -0.18662262 C141.17666135 -0.39058259 141.17666135 -0.39058259 157.44482422 13.16113281 C158.20408203 13.77472656 158.96333984 14.38832031 159.74560547 15.02050781 C176.6887014 29.39646799 188.43870211 49.65268334 199.01513672 68.91894531 C200.31254031 71.25583963 200.31254031 71.25583963 202.48950195 72.64526367 C205.59051811 76.63527134 205.10200241 80.73283106 205.15966797 85.65722656 C205.20135353 87.30421791 205.20135353 87.30421791 205.24388123 88.98448181 C205.33142692 92.70989862 205.38882601 96.43511642 205.44482422 100.16113281 C205.48408089 102.14225744 205.52335763 104.12338199 205.5639925 106.10447884 C205.76755987 116.14351275 205.89190961 126.18325963 206.00732422 136.22363281 C206.01751713 137.08562286 206.02771004 137.94761292 206.03821182 138.83572388 C206.44604432 173.41100574 206.5824768 207.98747454 206.62347943 242.56488317 C206.62945522 247.2962903 206.64030832 252.02767061 206.65310669 256.75906372 C206.66977228 263.19536555 206.67591568 269.63159641 206.67408371 276.06791878 C206.67487983 278.4540956 206.67899648 280.84027399 206.6866951 283.22643852 C206.69654634 286.52310689 206.69368722 289.81953824 206.68774414 293.11621094 C206.69617765 294.53694963 206.69617765 294.53694963 206.70478153 295.98639011 C206.65516635 306.67960662 205.49101279 316.16763783 199.44482422 325.16113281 C198.79707031 326.19367188 198.79707031 326.19367188 198.13623047 327.24707031 C191.08075101 337.68038555 179.05440378 343.66784379 166.94906616 346.18791199 C158.37791595 347.70098921 149.70808264 347.63139092 141.02929688 347.77563477 C139.11797834 347.81324851 137.20666568 347.85116175 135.29535866 347.88935566 C115.53970611 348.26357411 95.78303099 348.32567714 76.02438688 348.32838988 C73.03688222 348.32911525 70.04938179 348.33127573 67.0618782 348.3338871 C56.59284433 348.3430149 46.12382288 348.34723543 35.65478516 348.34643555 C25.9548085 348.34582818 16.25488625 348.35653939 6.55492342 348.37217921 C-1.85875602 348.38525426 -10.27241753 348.39061993 -18.68610704 348.38998014 C-23.67631321 348.38972648 -28.66646996 348.39250867 -33.6566658 348.40315819 C-38.31766004 348.41284631 -42.97855729 348.41291359 -47.63955498 348.40564156 C-49.34189814 348.40459881 -51.04424743 348.40694012 -52.74658012 348.41300201 C-67.93655998 348.46358779 -81.33942902 346.97213394 -92.86767578 335.95019531 C-105.76983966 320.10055434 -104.67306922 300.13709269 -104.97016716 280.82223701 C-105.02130138 277.51975104 -105.07791491 274.21739659 -105.13587952 270.9150238 C-105.29964718 261.52932703 -105.45392079 252.14348143 -105.60473633 242.75756836 C-105.71612405 235.87244477 -105.83370613 228.98745045 -105.95751953 222.10253906 C-105.98810581 220.39746626 -105.98810581 220.39746626 -106.01931 218.65794754 C-106.31199591 202.84180252 -106.8373841 187.05129157 -107.59814453 171.25097656 C-108.3912401 154.77780379 -108.92796401 138.35305859 -108.92578125 121.85791016 C-108.93028501 118.06924415 -108.96732344 114.281637 -109.00439453 110.49316406 C-109.1475921 78.95190191 -102.45041968 56.79670307 -82.55517578 32.16113281 C-81.47429687 30.80955078 -81.47429687 30.80955078 -80.37158203 29.43066406 C-68.18414789 15.00700348 -51.56551381 7.69107203 -33.55517578 3.16113281 C-32.73146484 2.94585937 -31.90775391 2.73058594 -31.05908203 2.50878906 C-20.87210051 0.02105917 -10.42903971 0.00959684 0 0 Z " fill="#FCFCFD" transform="translate(410.55517578125,282.8388671875)"/>
<path d="M0 0 C1.48277114 -0.0059958 2.96553919 -0.01280373 4.44830322 -0.02035522 C8.44827188 -0.0379097 12.4481548 -0.04270595 16.44815826 -0.0439868 C18.95256934 -0.04541429 21.45695902 -0.04969503 23.96136475 -0.05498123 C32.7131894 -0.07344242 41.46495339 -0.08165625 50.21679688 -0.08007812 C58.35234644 -0.07887589 66.4876311 -0.10000438 74.62311363 -0.13156545 C81.62979558 -0.15777115 88.63639117 -0.16844371 95.64312172 -0.16716731 C99.818471 -0.16665919 103.99358419 -0.17225949 108.16888428 -0.19352341 C112.09578716 -0.21298008 116.02223037 -0.21298011 119.94915009 -0.19849014 C121.38336616 -0.19641053 122.81761161 -0.20105206 124.25177765 -0.21321106 C133.80554479 -0.28891348 141.71089955 0.50503838 149.6640625 6.12255859 C156.13250195 12.84284302 161.19316681 20.37092782 166.0703125 28.29052734 C166.70646484 29.28632813 166.70646484 29.28632813 167.35546875 30.30224609 C168.0703125 32.29052734 168.0703125 32.29052734 168.0703125 39.29052734 C94.8103125 39.29052734 21.5503125 39.29052734 -53.9296875 39.29052734 C-38.77647569 7.30041352 -38.77647569 7.30041352 -24.9296875 2.29052734 C-16.71611922 -0.04352975 -8.47477175 -0.00689098 0 0 Z " fill="#8C99FC" transform="translate(401.9296875,314.70947265625)"/>
<path d="M0 0 C0.27972656 1.11375 0.55945313 2.2275 0.84765625 3.375 C4.84232405 18.79564266 9.05549413 32.84739507 21 44 C21.52464844 44.51949219 22.04929687 45.03898437 22.58984375 45.57421875 C32.98672468 55.16469341 46.80157282 54.45650715 60 54 C68.54628118 53.57703994 73.31651185 49.13485106 79 43 C90.40194351 29.73608773 96.33325633 13.29188804 102 -3 C107.23419357 -3.16335585 111.86306192 -2.60552037 116.9375 -1.5 C117.62134766 -1.35691406 118.30519531 -1.21382813 119.00976562 -1.06640625 C120.67449514 -0.71716229 122.33744875 -0.35947054 124 0 C124.68348216 22.09925647 120.94512808 42.56452578 108 61 C107.50242187 61.73734375 107.00484375 62.4746875 106.4921875 63.234375 C97.05176729 75.59094596 78.21345372 83.83050966 63.3125 86.375 C39.28240819 89.02076493 19.10375202 85.18309068 -0.3359375 70.265625 C-7.85079044 63.87469434 -15.6643309 57.00485121 -20 48 C-20.43828125 47.09765625 -20.8765625 46.1953125 -21.328125 45.265625 C-26.28689327 34.26513907 -27.18544017 23.93672096 -27.375 12 C-27.40118408 10.98381592 -27.42736816 9.96763184 -27.4543457 8.9206543 C-27.47066658 1.68929879 -27.47066658 1.68929879 -25.18359375 -1.66015625 C-18.24881813 -5.9153048 -7.47719072 -1.63563547 0 0 Z " fill="#8D54F6" transform="translate(410,420)"/>
</svg>
