<?xml version="1.0" encoding="UTF-8"?>
<svg version="1.1" xmlns="http://www.w3.org/2000/svg" width="144" height="144">
<path d="M0 0 C1.96490135 -0.00430527 1.96490135 -0.00430527 3.96949768 -0.00869751 C6.72529886 -0.01308675 9.48080569 -0.00680225 12.23657227 0.00732422 C15.73396276 0.02439755 19.23066129 0.01456553 22.72802639 -0.00339317 C26.11040334 -0.01696628 29.49260354 -0.00740571 32.875 0 C34.11285751 -0.00607269 35.35071503 -0.01214539 36.62608337 -0.0184021 C52.88497082 0.11136221 64.79813583 4.7209388 76.67578125 15.8515625 C87.14999361 27.30992905 89.47591623 40.37299575 89.40234375 55.39453125 C89.40664902 57.3594326 89.40664902 57.3594326 89.41104126 59.36402893 C89.4154305 62.11983011 89.409146 64.87533694 89.39501953 67.63110352 C89.3779462 71.12849401 89.38777822 74.62519254 89.40573692 78.12255764 C89.41931003 81.50493459 89.40974946 84.88713479 89.40234375 88.26953125 C89.40841644 89.50738876 89.41448914 90.74524628 89.42074585 92.02061462 C89.29098154 108.27950207 84.68140495 120.19266708 73.55078125 132.0703125 C62.0924147 142.54452486 49.029348 144.87044748 34.0078125 144.796875 C32.69787827 144.79974518 31.38794403 144.80261536 30.03831482 144.80557251 C27.28251364 144.80996175 24.52700681 144.80367725 21.77124023 144.78955078 C18.27384974 144.77247745 14.77715121 144.78230947 11.27978611 144.80026817 C7.89740916 144.81384128 4.51520896 144.80428071 1.1328125 144.796875 C-0.10504501 144.80294769 -1.34290253 144.80902039 -2.61827087 144.8152771 C-18.87715832 144.68551279 -30.79032333 140.0759362 -42.66796875 128.9453125 C-53.14218111 117.48694595 -55.46810373 104.42387925 -55.39453125 89.40234375 C-55.39740143 88.09240952 -55.40027161 86.78247528 -55.40322876 85.43284607 C-55.407618 82.67704489 -55.4013335 79.92153806 -55.38720703 77.16577148 C-55.3701337 73.66838099 -55.37996572 70.17168246 -55.39792442 66.67431736 C-55.41149753 63.29194041 -55.40193696 59.90974021 -55.39453125 56.52734375 C-55.40364029 54.67055748 -55.40364029 54.67055748 -55.41293335 52.77626038 C-55.28316904 36.51737293 -50.67359245 24.60420792 -39.54296875 12.7265625 C-28.0846022 2.25235014 -15.0215355 -0.07357248 0 0 Z " fill="#8C67F8" transform="translate(54.99609375,-0.3984375)"/>
<path d="M0 0 C3.12336872 0.08819901 6.21686328 0.02118443 9.33984375 -0.06225586 C24.64280996 -0.09520468 24.64280996 -0.09520468 29.97265625 5.11010742 C32.82567834 8.46197864 35.01114202 12.04687357 37.12109375 15.90063477 C37.61609375 16.39563477 37.61609375 16.39563477 38.12109375 16.90063477 C38.24070471 18.556012 38.29123572 20.21643929 38.31396484 21.87597656 C38.33002777 22.93765549 38.3460907 23.99933441 38.36264038 25.09318542 C38.40697404 29.96804294 38.448177 34.84276143 38.47119141 39.71777344 C38.48773596 42.28915466 38.51500572 44.86049018 38.55322266 47.43164062 C38.60799872 51.13378839 38.62987038 54.834855 38.64453125 58.53735352 C38.66720062 59.68443283 38.68987 60.83151215 38.71322632 62.01335144 C38.68965179 70.92556525 38.68965179 70.92556525 35.77587891 74.61083984 C32.09648912 77.78437275 29.5069522 78.0292474 24.81103516 78.07763672 C23.72625885 78.09047195 22.64148254 78.10330719 21.52383423 78.11653137 C20.3519455 78.1239183 19.18005676 78.13130524 17.97265625 78.13891602 C16.76797699 78.14698776 15.56329773 78.15505951 14.32211304 78.16337585 C11.77172281 78.17721345 9.22131408 78.18793705 6.67089844 78.19580078 C2.7685248 78.2130357 -1.1330066 78.25692913 -5.03515625 78.30102539 C-7.51171251 78.31115034 -9.98827598 78.31966706 -12.46484375 78.32641602 C-14.21660416 78.35267815 -14.21660416 78.35267815 -16.00375366 78.37947083 C-24.10647336 78.35774461 -24.10647336 78.35774461 -28.09228516 75.99902344 C-30.79528758 72.82434377 -31.03023682 70.95951487 -31.16699219 66.86279297 C-31.20242126 65.81021805 -31.23785034 64.75764313 -31.27435303 63.673172 C-31.39898581 58.80751055 -31.4891263 53.94194834 -31.55859375 49.07519531 C-31.60505398 46.52327032 -31.67302569 43.97163618 -31.76367188 41.42089844 C-32.68032108 15.16129296 -32.68032108 15.16129296 -25.34466553 5.95645142 C-18.53025204 -0.76663862 -8.98421016 -0.29385618 0 0 Z " fill="#FDFDFE" transform="translate(68.87890625,32.099365234375)"/>
<path d="M0 0 C1.30760788 -0.01641289 1.30760788 -0.01641289 2.64163208 -0.03315735 C4.48580004 -0.04902389 6.33008607 -0.05421851 8.17431641 -0.04956055 C10.99190957 -0.0507744 13.80429844 -0.11049336 16.62109375 -0.17382812 C18.4140498 -0.1819711 20.20702566 -0.18664228 22 -0.1875 C22.83973358 -0.21108078 23.67946716 -0.23466156 24.54464722 -0.25895691 C30.27680564 -0.16920145 30.27680564 -0.16920145 32.80963135 2.21542358 C36.1328125 6.76950149 36.1328125 6.76950149 36.1328125 8.63671875 C19.6328125 8.63671875 3.1328125 8.63671875 -13.8671875 8.63671875 C-13.2071875 7.31671875 -12.5471875 5.99671875 -11.8671875 4.63671875 C-11.51382324 3.90735107 -11.16045898 3.1779834 -10.79638672 2.42651367 C-7.6873857 -0.45783035 -4.0302779 0.00627739 0 0 Z " fill="#8C99FC" transform="translate(60.8671875,39.36328125)"/>
<path d="M0 0 C1.67542976 0.28604898 3.34385343 0.61781233 5 1 C5.37125 2.60875 5.37125 2.60875 5.75 4.25 C7.00929634 8.02788902 7.96797052 9.53647604 11 12 C14.13871188 13.56935594 16.53855822 13.35201103 20 13 C24.82732764 9.48921626 26.23336471 5.48586749 28 0 C30.475 0.495 30.475 0.495 33 1 C32.7321679 7.02622231 32.14253112 11.31239899 28 16 C23.23914646 19.61824869 19.48200285 20.71864168 13.49609375 20.4453125 C8.53005866 19.55935319 4.84870005 17.19859526 1.6171875 13.35546875 C-1.03006594 9.25500276 -1.47822109 5.78221091 -1 1 C-0.67 0.67 -0.34 0.34 0 0 Z " fill="#8D53F6" transform="translate(56,62)"/>
</svg>
